<svg id="Capa_1" enable-background="new 0 0 512 512" height="auto" width="auto" viewBox="0 0 512 512"  xmlns="http://www.w3.org/2000/svg"><path d="m407.5 151.5c0-83.537-67.963-151.5-151.5-151.5s-151.5 67.963-151.5 151.5c0 78.476 59.978 143.202 136.501 150.758v34.742h-37.333v175h104.667v-175h-37.335v-34.742c76.522-7.556 136.5-72.282 136.5-150.758zm-30 0c0 66.995-54.505 121.5-121.5 121.5s-121.5-54.505-121.5-121.5 54.505-121.5 121.5-121.5 121.5 54.505 121.5 121.5zm-99.167 330.5h-44.667v-115h44.667z"/><path d="m256 119.682c11.136 0 18.454-7 18.454-16.545 0-9.068-7.318-15.591-18.454-15.591s-18.455 7-18.455 16.068c.001 9.068 7.319 16.068 18.455 16.068z"/><path d="m240.887 129.228h30.227v86.226h-30.227z"/></svg>