<svg xmlns="http://www.w3.org/2000/svg" width="122" height="38" viewBox="0 0 122 38">
    <path fill="#FFF" fill-rule="evenodd" d="M28.856 22.902c.522.522 1.204.998 2.044 1.428.84.43 1.764.644 2.772.644a4.3 4.3 0 0 0 .756-.07c.261-.047.494-.126.7-.238.205-.112.373-.262.504-.448.13-.187.196-.43.196-.728 0-.486-.248-.887-.742-1.204-.495-.318-1.218-.635-2.17-.952l-1.036-.336a12.01 12.01 0 0 1-1.75-.728 7.276 7.276 0 0 1-1.582-1.078 5.064 5.064 0 0 1-1.134-1.484c-.29-.57-.434-1.237-.434-2.002 0-.859.158-1.657.476-2.394a5.544 5.544 0 0 1 1.386-1.932c.606-.55 1.358-.98 2.254-1.288.896-.308 1.932-.462 3.108-.462.914 0 1.745.084 2.492.252.746.168 1.4.373 1.96.616.56.242 1.036.504 1.428.784.392.28.69.532.896.756l-2.52 3.192a10.31 10.31 0 0 0-2.044-1.19 5.432 5.432 0 0 0-2.184-.462c-.243 0-.486.028-.728.084a2.41 2.41 0 0 0-.658.252 1.421 1.421 0 0 0-.476.434 1.138 1.138 0 0 0-.182.658c0 .28.07.522.21.728.14.205.331.382.574.532.242.15.536.284.882.406.345.121.714.247 1.106.378l.896.28c.634.205 1.278.443 1.932.714a6.35 6.35 0 0 1 1.764 1.092 5.423 5.423 0 0 1 1.288 1.708c.336.681.504 1.516.504 2.506 0 .858-.201 1.652-.602 2.38a5.994 5.994 0 0 1-1.624 1.876c-.682.522-1.484.928-2.408 1.218a9.831 9.831 0 0 1-2.954.434c-1.867 0-3.43-.248-4.69-.742-1.26-.495-2.329-1.162-3.206-2.002l2.996-3.612zm14.189-12.768H48V28.81h-4.956V10.134zm16.96 8.008h7.673v8.428a10.31 10.31 0 0 1-3.85 2.058c-1.447.42-2.898.63-4.354.63-1.512 0-2.87-.229-4.074-.686-1.204-.458-2.226-1.11-3.066-1.96-.84-.85-1.48-1.88-1.918-3.094-.439-1.214-.658-2.576-.658-4.088 0-1.419.238-2.73.714-3.934.476-1.204 1.143-2.24 2.002-3.108a9.117 9.117 0 0 1 3.066-2.03c1.185-.486 2.496-.728 3.934-.728 1.549 0 3 .256 4.354.77 1.353.513 2.487 1.367 3.402 2.562l-3.22 3.248a8.612 8.612 0 0 0-1.862-1.428c-.663-.374-1.433-.56-2.31-.56-.803 0-1.512.14-2.128.42a4.555 4.555 0 0 0-1.554 1.134 4.981 4.981 0 0 0-.966 1.68 6.22 6.22 0 0 0-.336 2.058c0 .802.121 1.526.364 2.17a4.91 4.91 0 0 0 1.008 1.652c.429.457.952.812 1.568 1.064.616.252 1.306.378 2.072.378.616 0 1.204-.075 1.764-.224.56-.15 1.101-.41 1.624-.784v-1.792h-3.248v-3.836zm9.85-8.008h4.508L81.53 20.55V10.134h4.9V28.81h-4.228l-7.448-10.724V28.81h-4.9V10.134zm24.52 0h5.685l6.608 18.676h-5.348l-1.204-3.864h-6.244L92.64 28.81h-5.124l6.86-18.676zm4.733 11.2l-2.072-6.86-2.156 6.86h4.228zm8.645-11.2h4.956v14.308h8.652v4.368h-13.608V10.134zM1.237 6.45a3 3 0 0 1 4.19.664L20.122 27.34a3 3 0 0 1-4.854 3.527L.573 10.64a3 3 0 0 1 .664-4.19zM9.327.573a3 3 0 0 1 4.19.664l5.29 7.281a3 3 0 1 1-4.854 3.527l-5.29-7.281a3 3 0 0 1 .664-4.19zm-6.776 24.7a3 3 0 0 1 4.19.664l5.29 7.281a3 3 0 1 1-4.853 3.527l-5.29-7.281a3 3 0 0 1 .663-4.19z"/>
</svg>
