<svg xmlns="http://www.w3.org/2000/svg" width="60" height="60" fill="none" viewBox="0 0 60 60">
    <path fill="#000" d="M16 26h-2v4h2v-4zM31 54h-2v2h2v-2zM32 46h-2v2h2v-2zM18 28h8v4h2v-5c0-.265-.105-.52-.293-.707C27.52 26.105 27.265 26 27 26h-8c-.265 0-.52.105-.707.293-.188.187-.293.442-.293.707v1zM35 30h-5v2h5v-2zM19 24h8c.265 0 .52-.105.707-.293.188-.187.293-.442.293-.707v-2h-2v1h-8v1c0 .265.105.52.293.707.187.188.442.293.707.293zM53 60V40.044c.003-2.655-.956-5.22-2.7-7.222l-1.53-1.841-1.54 1.276 1.543 1.861C50.208 35.758 51 37.864 51 40.044V60h2z"/>
    <path fill="#000" d="M40 60h1v-2c0-.227-.077-.448-.219-.625-1.06-1.316-1.698-2.92-1.83-4.605-.13-1.684.25-3.37 1.094-4.833l.823-1.441c.108-.19.15-.41.122-.627-.03-.217-.129-.418-.283-.573l-6-6c-.463-.478-.72-1.12-.715-1.785.006-.666.272-1.302.743-1.773.47-.47 1.108-.737 1.773-.743.666-.005 1.307.252 1.785.715l8 8 1.414-1.414L46 40.586V33h-2v5.586L41.414 36H42v-2h-2.652c-.805-.656-1.812-1.014-2.85-1.014s-2.045.358-2.85 1.014H30v2h2.237c-.223.642-.3 1.325-.223 2H30v2h2.716c.168.254.361.491.577.707L34.586 42H30v2h6.586l2 2H34v2h3.8c-.281.643-.497 1.313-.645 2H30v2h6.952c-.026 2.141.613 4.238 1.83 6H19c-.796 0-1.559-.316-2.121-.879C16.316 56.56 16 55.795 16 55v-1h-2v1c.002 1.325.529 2.596 1.466 3.534.938.937 2.208 1.464 3.534 1.466h21zM4 20h4.7l5.748 3.832c.15.1.325.157.506.165.18.008.36-.032.518-.117.16-.086.293-.213.386-.367.092-.155.142-.332.142-.513v-3h8c1.06 0 2.078-.421 2.828-1.172C27.578 18.078 28 17.061 28 16V4c0-1.06-.421-2.078-1.172-2.828C26.078.422 25.061 0 24 0H4C2.94 0 1.922.421 1.172 1.172.422 1.922 0 2.939 0 4v12c0 1.06.421 2.078 1.172 2.828C1.922 19.578 2.939 20 4 20zm20-2h-9c-.265 0-.52.105-.707.293-.188.187-.293.442-.293.707v2.131l-4.445-2.963C9.39 18.058 9.197 18 9 18H4c-.465 0-.915-.163-1.273-.46-.358-.296-.602-.707-.689-1.164l7.913-7.913 6.3 7.2c.17.194.407.314.664.337.257.023.512-.054.713-.215l4.3-3.441 4.036 4.036c-.088.456-.333.867-.69 1.163-.36.296-.81.457-1.274.457zM2 4c0-.53.21-1.04.586-1.414C2.96 2.21 3.47 2 4 2h20c.53 0 1.04.21 1.414.586C25.79 2.96 26 3.47 26 4v9.586l-3.293-3.293c-.174-.174-.406-.278-.652-.292-.246-.013-.488.064-.68.218l-4.252 3.4-6.371-7.278c-.09-.103-.2-.186-.324-.245s-.258-.091-.395-.096c-.137-.004-.273.02-.4.07-.127.051-.243.127-.34.223L2 13.586V4z"/>
    <path fill="#000" d="M18 10c.593 0 1.173-.176 1.667-.506.493-.33.878-.798 1.105-1.346.227-.548.286-1.151.17-1.733-.115-.582-.401-1.117-.82-1.536-.42-.42-.955-.706-1.537-.821-.582-.116-1.185-.057-1.733.17s-1.017.612-1.346 1.105C15.176 5.827 15 6.407 15 7c0 .796.316 1.559.879 2.121.562.563 1.325.879 2.121.879zm0-4c.198 0 .391.059.556.169.164.11.292.266.368.448.076.183.095.384.057.578-.039.194-.134.372-.274.512s-.318.235-.512.274c-.194.038-.395.019-.578-.057-.182-.076-.339-.204-.448-.368C17.059 7.39 17 7.198 17 7c0-.265.105-.52.293-.707C17.48 6.105 17.735 6 18 6zM60 17c0-.796-.316-1.559-.879-2.121C58.56 14.316 57.796 14 57 14H46V9c-.002-1.326-.529-2.596-1.466-3.534C43.596 4.53 42.326 4.002 41 4H30v2h11c.796 0 1.559.316 2.121.879C43.684 7.44 44 8.204 44 9v1H30v2h14v2h-9c-.796 0-1.559.316-2.121.879C32.316 15.44 32 16.204 32 17v8c0 .796.316 1.559.879 2.121.562.563 1.325.879 2.121.879h6v3c0 .198.059.391.169.555.11.165.266.293.448.369.183.075.384.095.578.057.194-.039.372-.134.512-.274L46.414 28H57c.796 0 1.559-.316 2.121-.879.563-.562.879-1.325.879-2.121v-8zm-2 8c0 .265-.105.52-.293.707-.187.188-.442.293-.707.293H46c-.265 0-.52.105-.707.293L43 28.586V27c0-.265-.105-.52-.293-.707C42.52 26.105 42.265 26 42 26h-7c-.265 0-.52-.105-.707-.293C34.105 25.52 34 25.265 34 25v-8c0-.265.105-.52.293-.707.187-.188.442-.293.707-.293h22c.265 0 .52.105.707.293.188.187.293.442.293.707v8z"/>
    <path fill="#000" d="M40 18h-4v2h4v-2zM56 18H42v2h14v-2zM46 22H36v2h10v-2zM50 22h-2v2h2v-2zM56 22h-4v2h4v-2zM8 34c-1.06 0-2.078.421-2.828 1.172C4.422 35.922 4 36.939 4 38v10c0 1.06.421 2.078 1.172 2.828C5.922 51.578 6.939 52 8 52h16c1.06 0 2.078-.422 2.828-1.172S28 49.061 28 48V38c0-1.061-.421-2.078-1.172-2.828C26.078 34.422 25.061 34 24 34h-4v-3c0-.181-.05-.359-.142-.514-.093-.155-.227-.283-.386-.368-.16-.085-.34-.126-.52-.117-.181.009-.356.066-.507.167L12.7 34H8zm5.555 1.832L18 32.869v2.13c0 .266.105.52.293.708.187.188.442.293.707.293h5c.53 0 1.04.21 1.414.586.375.375.586.883.586 1.414v10c0 .53-.21 1.04-.586 1.414C25.04 49.79 24.53 50 24 50H8c-.53 0-1.04-.21-1.414-.586C6.21 49.04 6 48.53 6 48V38c0-.53.21-1.04.586-1.414C6.96 36.21 7.47 36 8 36h5c.197 0 .39-.059.555-.168z"/>
    <path fill="#000" d="M12.5 47.865c.152.088.325.134.5.134s.348-.046.5-.134l7-4c.153-.087.28-.214.369-.366.088-.153.134-.326.134-.502s-.046-.35-.134-.502c-.089-.152-.216-.278-.369-.366l-7-4c-.152-.088-.325-.134-.501-.134s-.349.047-.501.135c-.152.089-.278.216-.366.368-.087.153-.133.326-.132.502v8c0 .175.046.348.134.5.088.151.214.277.366.365zm1.5-7.142L17.984 43 14 45.277v-4.554zM39 30h-2v2h2v-2z"/>
</svg>
