<svg xmlns="http://www.w3.org/2000/svg" width="52" height="44" fill="none" viewBox="0 0 52 44">
    <path fill="#000" d="M30.816 31.917h-9.653c-.478 0-.867-.351-.867-.783v-5.441c0-.432.389-.783.867-.783h9.653c.479 0 .867.35.867.783v5.44c0 .433-.389.784-.867.784zM22.03 30.35h7.92v-3.875h-7.92v3.875z"/>
    <path fill="#000" d="M30.816 26.476h-9.653c-.478 0-.867-.35-.867-.783v-5.44c0-.433.389-.784.867-.784h9.653c.479 0 .867.351.867.783v5.441c0 .433-.389.783-.867.783zM22.03 24.91h7.92v-3.875h-7.92v3.875z"/>
    <path fill="#000" d="M30.816 21.036h-9.653c-.478 0-.867-.35-.867-.783v-5.44c0-.433.389-.784.867-.784h9.653c.479 0 .867.351.867.783v5.441c0 .432-.389.783-.867.783zM22.03 19.47h7.92v-3.875h-7.92v3.875zM47.6 28.143h-9.653c-.479 0-.867-.35-.867-.783v-5.44c0-.433.388-.783.867-.783H47.6c.478 0 .866.35.866.783v5.44c.001.433-.387.783-.865.783zm-8.787-1.565h7.92v-3.875h-7.92v3.875z"/>
    <path fill="#000" d="M47.6 22.703h-9.653c-.479 0-.867-.351-.867-.783v-5.441c0-.432.388-.783.867-.783H47.6c.478 0 .866.35.866.783v5.44c.001.433-.387.784-.865.784zm-8.787-1.566h7.92v-3.875h-7.92v3.875z"/>
    <path fill="#000" d="M47.6 17.262h-9.653c-.479 0-.867-.351-.867-.783v-5.44c0-.433.388-.784.867-.784H47.6c.478 0 .866.351.866.783v5.44c.001.434-.387.784-.865.784zm-8.787-1.566h7.92v-3.875h-7.92v3.875zM47.6 33.583h-9.653c-.479 0-.867-.35-.867-.782V27.36c0-.433.388-.783.867-.783H47.6c.478 0 .866.35.866.783v5.44c.001.433-.387.783-.865.783zm-8.787-1.565h7.92v-3.876h-7.92v3.876z"/>
    <path fill="#000" d="M46.71 43.84H5.29C2.372 43.84 0 41.744 0 39.17V4.67C0 2.094 2.373 0 5.29 0h41.42C49.628 0 52 2.094 52 4.669V39.17c0 2.574-2.373 4.668-5.29 4.668zM5.29 1.565c-1.961 0-3.557 1.392-3.557 3.103V39.17c0 1.71 1.596 3.103 3.556 3.103h41.422c1.96 0 3.556-1.392 3.556-3.104V4.67c0-1.711-1.596-3.103-3.556-3.103H5.289z"/>
    <path fill="#000" d="M13.988 33.583H4.335c-.478 0-.867-.35-.867-.782V27.36c0-.433.389-.783.867-.783h9.653c.478 0 .867.35.867.783v5.44c0 .433-.388.783-.867.783zm-8.786-1.565h7.92v-3.876h-7.92v3.876z"/>
    <path fill="#000" d="M13.988 28.143H4.335c-.478 0-.867-.35-.867-.783v-5.44c0-.433.389-.783.867-.783h9.653c.478 0 .867.35.867.783v5.44c0 .433-.388.783-.867.783zm-8.786-1.565h7.92v-3.875h-7.92v3.875z"/>
    <path fill="#000" d="M13.988 22.703H4.335c-.478 0-.867-.351-.867-.783v-5.441c0-.432.389-.783.867-.783h9.653c.478 0 .867.35.867.783v5.44c0 .433-.388.784-.867.784zm-8.786-1.566h7.92v-3.875h-7.92v3.875zM13.988 11.822H4.335c-.478 0-.867-.351-.867-.783v-5.44c0-.433.389-.784.867-.784h9.653c.478 0 .867.351.867.783v5.44c0 .433-.388.784-.867.784zm-8.786-1.566h7.92V6.381h-7.92v3.875z"/>
    <path fill="#000" d="M13.988 17.262H4.335c-.478 0-.867-.351-.867-.783v-5.44c0-.433.389-.784.867-.784h9.653c.478 0 .867.351.867.783v5.44c0 .434-.388.784-.867.784zm-8.786-1.566h7.92v-3.875h-7.92v3.875zM13.988 39.024H4.335c-.478 0-.867-.35-.867-.783v-5.44c0-.433.389-.783.867-.783h9.653c.478 0 .867.35.867.782v5.441c0 .432-.388.783-.867.783zm-8.786-1.566h7.92v-3.875h-7.92v3.875zM17.586 43.84c-.478 0-.866-.351-.866-.784V1.246c0-.432.388-.783.866-.783.479 0 .867.351.867.783v41.81c0 .433-.388.783-.867.783zM34.368 43.84c-.479 0-.867-.351-.867-.784V1.246c0-.432.388-.783.867-.783.478 0 .866.351.866.783v41.81c0 .433-.388.783-.866.783z"/>
</svg>
