<svg xmlns="http://www.w3.org/2000/svg" width="60" height="52" fill="none" viewBox="0 0 60 52">
    <path fill="#000" d="M59 44h-1V13c-.002-.877-.233-1.739-.672-2.499-.439-.76-1.07-1.39-1.828-1.831l-1 1.73c.455.264.833.644 1.097 1.1.263.456.402.973.403 1.5v31H38.414c-.58-.002-1.155.112-1.69.334-.536.222-1.023.548-1.432.959-.223.225-.49.403-.782.525-.293.12-.607.183-.924.182h-7.172c-.317 0-.631-.061-.924-.182-.293-.122-.559-.3-.782-.525-.409-.411-.895-.737-1.431-.96-.536-.221-1.111-.335-1.691-.333H4V13c.001-.527.14-1.044.403-1.5.264-.456.642-.835 1.097-1.1l-1-1.73c-.759.44-1.39 1.072-1.828 1.831-.439.76-.67 1.622-.672 2.499v31H1c-.265 0-.52.105-.707.293C.105 44.48 0 44.735 0 45v3c0 1.06.421 2.078 1.172 2.828C1.922 51.578 2.939 52 4 52h52c1.06 0 2.078-.422 2.828-1.172S60 49.061 60 48v-3c0-.265-.105-.52-.293-.707C59.52 44.105 59.265 44 59 44zm-1 4c0 .53-.21 1.04-.586 1.414C57.04 49.79 56.53 50 56 50H4c-.53 0-1.04-.21-1.414-.586C2.21 49.04 2 48.53 2 48v-2h19.586c.317-.001.631.06.924.182.293.122.559.3.782.525.409.41.894.736 1.43.958.535.222 1.109.336 1.688.335h7.18c.58.001 1.153-.113 1.688-.335.535-.221 1.021-.547 1.43-.958.223-.225.49-.403.782-.525.293-.121.607-.183.924-.182H58v2z"/>
    <path fill="#000" d="M51 42h2V9c0-.023-.012-.043-.014-.066-.006-.085-.022-.17-.049-.251-.012-.034-.021-.067-.036-.1-.046-.105-.11-.201-.19-.284v-.007l-8-8c-.085-.083-.185-.151-.294-.2-.03-.013-.06-.021-.091-.032-.085-.03-.174-.047-.264-.052C44.038.01 44.02 0 44 0H12c-1.326.002-2.596.529-3.534 1.466C7.53 2.404 7.002 3.674 7 5v37h2V5c0-.796.316-1.559.879-2.121C10.44 2.316 11.204 2 12 2h31v5c0 .796.316 1.559.879 2.121.562.563 1.325.879 2.121.879h5v32zM46 8c-.265 0-.52-.105-.707-.293C45.105 7.52 45 7.265 45 7V3.414L49.585 8H46z"/>
    <path fill="#000" d="M14 4h-2v2h2V4zM18 4h-2v2h2V4zM22 4h-2v2h2V4zM41 8H12v2h29V8zM22.929 35.071c-1.636-1.627-2.654-3.774-2.88-6.07H22v-2h-1.949c.195-1.955.964-3.808 2.211-5.325l1.374 1.374 1.414-1.414-1.374-1.374c1.518-1.246 3.37-2.016 5.324-2.21V20h2v-1.949c1.954.195 3.807.965 5.324 2.211l-1.031 1.031 1.414 1.414 1.031-1.03c1.246 1.517 2.016 3.369 2.211 5.323H38v2h1.951c-.226 2.297-1.244 4.444-2.88 6.071l1.415 1.414c1.678-1.678 2.82-3.816 3.284-6.144.462-2.328.225-4.74-.684-6.933-.908-2.193-2.446-4.067-4.42-5.385C34.694 16.704 32.374 16 30 16s-4.693.704-6.667 2.023c-1.973 1.318-3.511 3.192-4.42 5.385-.908 2.192-1.145 4.605-.683 6.933.463 2.328 1.606 4.466 3.284 6.144l1.415-1.414z"/>
    <path fill="#000" d="M31.285 25.3c-.4-.196-.84-.298-1.285-.3-.593 0-1.173.176-1.667.506-.493.33-.878.798-1.105 1.346-.227.548-.286 1.151-.17 1.733.115.582.401 1.117.82 1.536.42.42.955.706 1.537.821.582.116 1.185.057 1.733-.17s1.017-.612 1.346-1.105c.33-.494.506-1.074.506-1.667-.002-.445-.104-.885-.3-1.285l2.008-2.008-1.414-1.414-2.009 2.007zM30 29c-.198 0-.391-.059-.556-.169-.164-.11-.292-.266-.368-.448-.076-.183-.095-.384-.057-.578.039-.194.134-.372.274-.512s.318-.235.512-.274c.194-.038.395-.019.578.057.182.076.339.204.448.368.11.165.169.358.169.556 0 .265-.105.52-.293.707-.187.188-.442.293-.707.293zM34 35h-8v2h8v-2z"/>
    <path fill="#000" d="M22.04 41.867c.152.087.325.133.5.133h14.922c.175 0 .348-.046.5-.133 3.059-1.754 5.452-4.47 6.809-7.725 1.356-3.254 1.6-6.866.692-10.273-.908-3.407-2.916-6.42-5.712-8.568-2.796-2.149-6.223-3.313-9.749-3.313-3.526 0-6.953 1.164-9.75 3.313-2.795 2.149-4.803 5.16-5.71 8.568-.909 3.407-.665 7.019.691 10.273 1.357 3.255 3.75 5.97 6.809 7.725h-.002zM30 14c3.062-.002 6.04 1.001 8.478 2.855 2.437 1.854 4.2 4.456 5.016 7.408.816 2.951.641 6.089-.498 8.932-1.138 2.842-3.178 5.233-5.806 6.805H22.81c-2.628-1.572-4.668-3.963-5.807-6.805-1.138-2.843-1.313-5.98-.497-8.932.817-2.952 2.578-5.554 5.016-7.408C23.959 15.001 26.938 13.998 30 14zM18 12h-6v2h6v-2zM15 16h-3v2h3v-2zM48 12h-5v2h5v-2zM48 16h-3v2h3v-2zM16 39h-4v2h4v-2zM14 35h-2v2h2v-2zM48 39h-4v2h4v-2zM48 35h-2v2h2v-2z"/>
</svg>
