<svg xmlns="http://www.w3.org/2000/svg" width="60" height="60" fill="none" viewBox="0 0 60 60">
    <path fill="#000" d="M2 48c-.001-.92.179-1.83.53-2.68.351-.85.867-1.623 1.517-2.273.65-.65 1.423-1.166 2.273-1.517.85-.351 1.76-.531 2.68-.53h2.153l.861 5.164c.03.181.11.35.23.49.12.138.276.242.451.298.175.056.362.063.54.02.179-.044.342-.135.472-.265L18 42.414V60h2V42.414l4.293 4.293c.12.12.27.208.434.254.164.047.337.05.502.011.166-.039.32-.12.445-.234.126-.115.22-.26.274-.422l1-3-1.9-.632-.49 1.464L21.414 41H25v-6.782c1.372-.89 2.528-2.077 3.383-3.473.854-1.395 1.385-2.964 1.554-4.591L30.058 25H35c.265 0 .52-.105.707-.293.188-.187.293-.442.293-.707v-8c0-.265-.105-.52-.293-.707C35.52 15.105 35.265 15 35 15h-1c0-3.978-1.58-7.794-4.393-10.607C26.794 1.58 22.978 0 19 0c-3.978 0-7.794 1.58-10.607 4.393C5.58 7.206 4 11.022 4 15H3c-.265 0-.52.105-.707.293C2.105 15.48 2 15.735 2 16v8c0 .265.105.52.293.707.187.188.442.293.707.293h1v3c0 .181.05.36.143.515l3 5 1.714-1.03L6 27.723V25h1.942l.121 1.154c.17 1.627.7 3.196 1.555 4.591.854 1.396 2.01 2.582 3.382 3.473V39H9c-1.182-.001-2.353.23-3.446.682-1.092.452-2.085 1.115-2.92 1.951-.837.836-1.5 1.829-1.952 2.921C.231 45.647 0 46.818 0 48v12h2V48zm11.667-4.081L13.18 41h3.406l-2.919 2.919zM23 39h-8v-3.747c2.574.996 5.426.996 8 0V39zm11-16h-3.732l.632-6H34v6zM4 23v-6h3.1l.632 6H4zm3.051-8H6c0-3.448 1.37-6.754 3.808-9.192C12.246 3.37 15.552 2 19 2c3.448 0 6.754 1.37 9.192 3.808C30.63 8.246 32 11.552 32 15h-1.051c-.246-3-1.611-5.799-3.825-7.839-2.214-2.04-5.114-3.172-8.125-3.172-3.01 0-5.91 1.132-8.125 3.172C8.66 9.201 7.294 12 7.05 15h.002zM19 6c2.51.004 4.925.95 6.77 2.652 1.844 1.701 2.982 4.033 3.188 6.534l-3.189-3.827c-.129-.154-.301-.266-.495-.321-.194-.055-.4-.05-.59.014-3.717 1.245-7.724 1.331-11.491.249l-.919-.263c-.204-.058-.42-.05-.62.023-.198.073-.368.208-.486.384l-2.045 3.068c.357-2.365 1.55-4.525 3.361-6.086C14.296 6.865 16.608 6.004 19 6zm-8.948 19.945l-.838-7.963 3.213-4.82.218.063c3.93 1.128 8.1 1.103 12.016-.07l4.114 4.937-.827 7.853c-.234 2.21-1.278 4.256-2.93 5.743-1.653 1.487-3.797 2.31-6.02 2.31-2.223 0-4.367-.823-6.02-2.31-1.652-1.487-2.696-3.532-2.93-5.743h.004zM38 56h-2v4h2v-4z"/>
    <path fill="#000" d="M13 22c1.105 0 2-.895 2-2s-.895-2-2-2-2 .895-2 2 .895 2 2 2zM25 22c1.105 0 2-.895 2-2s-.895-2-2-2-2 .895-2 2 .895 2 2 2zM20 25v-2h-1.382l1.282-2.553-1.79-.894-2 4c-.076.152-.112.321-.105.491.008.17.059.335.148.48.089.145.213.264.362.348.148.083.315.127.485.128h3zM22.293 25.293c-1.095 1.09-2.576 1.703-4.121 1.707H17v2h1.172c2.075-.006 4.064-.83 5.535-2.293l-1.414-1.414zM9 51H7v9h2v-9zM31 52h-2v8h2v-8zM59 36h-2.643c-.212-.657-.476-1.295-.79-1.91l1.868-1.868c.188-.188.293-.442.293-.707 0-.265-.105-.52-.293-.707l-4.243-4.243c-.188-.188-.442-.293-.707-.293-.265 0-.52.106-.707.293l-1.868 1.868c-.614-.314-1.253-.579-1.91-.79V25c0-.265-.105-.52-.293-.707C47.52 24.105 47.265 24 47 24h-6c-.265 0-.52.105-.707.293-.188.187-.293.442-.293.707v2.643c-.657.212-1.295.476-1.91.79l-1.868-1.868c-.188-.188-.442-.293-.707-.293-.265 0-.52.106-.707.293l-4.243 4.243c-.188.188-.293.442-.293.707 0 .265.106.52.293.707l1.869 1.868c-.315.614-.58 1.253-.791 1.91H29c-.265 0-.52.105-.707.293-.188.187-.293.442-.293.707v6c0 .265.105.52.293.707.187.188.442.293.707.293h2.643c.212.657.476 1.295.79 1.91l-1.868 1.868c-.188.188-.293.442-.293.707 0 .265.106.52.293.707l4.243 4.243c.188.188.442.293.707.293.265 0 .52-.105.707-.293l1.868-1.868c.614.314 1.253.579 1.91.79V55c0 .265.105.52.293.707.187.188.442.293.707.293h6c.265 0 .52-.105.707-.293.188-.187.293-.442.293-.707v-2.643c.657-.212 1.295-.476 1.91-.79l1.868 1.868c.188.188.442.293.707.293.265 0 .52-.105.707-.293l4.243-4.243c.188-.188.293-.442.293-.707 0-.265-.105-.52-.293-.707l-1.869-1.868c.315-.614.58-1.253.791-1.91H59c.265 0 .52-.105.707-.293.188-.187.293-.442.293-.707v-6c0-.265-.105-.52-.293-.707C59.52 36.105 59.265 36 59 36zm-1 6h-2.394c-.222 0-.437.074-.612.21-.175.135-.3.325-.356.54-.256.993-.65 1.945-1.17 2.829-.113.19-.159.414-.13.634.027.22.127.424.284.581l1.691 1.691-2.828 2.828-1.692-1.691c-.157-.156-.362-.256-.582-.284-.22-.027-.443.018-.634.13-.883.52-1.834.915-2.827 1.17-.215.055-.405.18-.54.356-.136.175-.21.39-.21.612V54h-4v-2.394c0-.222-.074-.437-.21-.612-.135-.175-.325-.3-.54-.356-.993-.255-1.944-.65-2.827-1.17-.191-.113-.414-.159-.634-.131-.22.028-.425.128-.582.285l-1.692 1.691-2.828-2.828 1.691-1.692c.157-.157.257-.361.285-.582.028-.22-.018-.443-.131-.634-.52-.883-.915-1.834-1.17-2.827-.055-.215-.18-.405-.356-.54-.175-.136-.39-.21-.612-.21H30v-4h2.394c.222 0 .437-.074.612-.21.175-.135.3-.325.356-.54.256-.993.65-1.945 1.17-2.829.113-.19.159-.414.13-.634-.027-.22-.127-.424-.284-.581l-1.691-1.691 2.828-2.828 1.692 1.691c.157.157.361.257.582.285.22.028.443-.018.634-.131.883-.52 1.834-.915 2.827-1.17.215-.055.405-.18.54-.356.136-.175.21-.39.21-.612V26h4v2.394c0 .222.074.437.21.612.135.175.325.3.54.356.993.255 1.944.65 2.827 1.17.191.113.414.159.634.131.22-.028.425-.128.582-.285l1.692-1.691 2.828 2.828-1.691 1.692c-.157.157-.257.361-.285.582-.028.22.018.443.131.634.52.883.915 1.834 1.17 2.827.055.215.18.405.356.54.175.136.39.21.612.21H58v4z"/>
    <path fill="#000" d="M44 31c-1.78 0-3.52.528-5 1.517-1.48.989-2.634 2.394-3.315 4.039-.681 1.644-.86 3.454-.512 5.2.347 1.746 1.204 3.35 2.463 4.608 1.259 1.259 2.862 2.116 4.608 2.463 1.746.347 3.556.17 5.2-.512 1.645-.681 3.05-1.835 4.04-3.315.988-1.48 1.516-3.22 1.516-5-.003-2.386-.952-4.674-2.639-6.361C48.674 31.952 46.386 31.003 44 31zm0 16c-1.385 0-2.738-.41-3.889-1.18-1.151-.769-2.048-1.862-2.578-3.141-.53-1.28-.669-2.687-.398-4.045.27-1.358.936-2.605 1.915-3.584.98-.979 2.227-1.645 3.584-1.915 1.358-.27 2.766-.132 4.045.398s2.372 1.427 3.141 2.578C50.59 37.262 51 38.616 51 40c-.002 1.856-.74 3.635-2.053 4.947C47.635 46.26 45.856 46.997 44 47z"/>
    <path fill="#000" d="M44 35c-.989 0-1.956.293-2.778.843-.822.55-1.463 1.33-1.841 2.244-.379.913-.478 1.918-.285 2.888s.67 1.861 1.369 2.56c.699.7 1.59 1.176 2.56 1.369.97.193 1.975.094 2.888-.285.914-.378 1.695-1.019 2.244-1.841.55-.822.843-1.79.843-2.778-.002-1.326-.529-2.596-1.466-3.534C46.596 35.53 45.326 35.002 44 35zm0 8c-.593 0-1.173-.176-1.667-.506-.493-.33-.878-.798-1.105-1.346-.227-.548-.286-1.151-.17-1.733.115-.582.401-1.117.82-1.536.42-.42.955-.706 1.537-.821.582-.116 1.185-.057 1.733.17s1.017.612 1.346 1.105c.33.494.506 1.074.506 1.667 0 .796-.316 1.559-.879 2.121-.562.563-1.325.879-2.121.879z"/>
</svg>
