<svg xmlns="http://www.w3.org/2000/svg" width="52" height="44" fill="none" viewBox="0 0 52 47">
    <path fill="#000" d="M49.386 35.424l1.148 1.174c.46-.367.83-.819 1.083-1.325.252-.506.383-1.055.383-1.61V8.61c0-.555-.13-1.104-.383-1.61s-.622-.958-1.083-1.325L49.386 6.85c.277.22.498.491.65.795.152.304.23.633.23.966v25.052c0 .333-.078.662-.23.966-.151.303-.373.575-.65.795zM3.467 33.584v.078c.001 1.038.458 2.033 1.27 2.767.813.734 1.914 1.146 3.063 1.148h23.4V36.01H7.8c-.69 0-1.35-.248-1.838-.688-.488-.44-.762-1.038-.762-1.66h26v-1.566H4.333c-.69 0-1.35-.248-1.838-.688-.488-.44-.762-1.038-.762-1.66V3.913c0-.623.274-1.22.762-1.66.487-.44 1.149-.688 1.838-.688H44.2c.69 0 1.351.247 1.839.688.487.44.761 1.037.761 1.66v25.834c0 .623-.274 1.22-.761 1.66-.488.441-1.15.689-1.839.689h-4.333v1.565H44.2c1.149 0 2.25-.414 3.063-1.147.812-.734 1.27-1.73 1.27-2.767V3.914c0-1.038-.458-2.032-1.27-2.766C46.45.414 45.349 0 44.2 0H4.333c-1.149.001-2.25.414-3.062 1.148C.458 1.882 0 2.877 0 3.914v25.834c.001.902.347 1.776.978 2.475.632.699 1.51 1.18 2.489 1.361z"/>
    <path fill="#000" d="M6.067 3.131H4.333v1.566h1.734V3.131zM9.533 3.131H7.8v1.566h1.733V3.131zM13 3.131h-1.733v1.566H13V3.131zM18.262 8.556c-1.418-1.28-3.284-2.078-5.28-2.255-1.994-.178-3.996.275-5.664 1.281C5.651 8.59 4.422 10.086 3.84 11.82c-.582 1.733-.48 3.595.287 5.268.767 1.674 2.153 3.055 3.921 3.909 1.768.853 3.81 1.127 5.776.773 1.967-.353 3.737-1.311 5.009-2.711 1.272-1.4 1.967-3.156 1.967-4.967.003-1.028-.22-2.047-.655-2.997-.436-.95-1.076-1.813-1.883-2.538zM7.23 9.663c1.194-1.08 2.783-1.727 4.469-1.823 1.685-.095 3.351.368 4.685 1.304l-4.61 4.164H5.254c.188-1.38.884-2.664 1.977-3.645zm-1.977 5.211h4.787l-3.385 3.058c-.766-.885-1.25-1.942-1.402-3.058zm6.88 5.48c-1.54.004-3.038-.459-4.252-1.315l4.252-3.84 4.251 3.84c-1.214.856-2.711 1.32-4.252 1.315zm5.477-2.422l-4.252-3.84 4.252-3.841c.944 1.098 1.457 2.45 1.457 3.84 0 1.391-.513 2.742-1.457 3.84zM22.533 27.4c0 .207.092.406.254.553.163.147.383.23.613.23h20.8v-1.566H24.267v-1.865l2.6-1.174 3.079 1.395c.12.052.253.08.387.078.23 0 .45-.082.613-.23l2.854-2.577 2.854 2.578c.09.082.2.146.32.185.122.039.25.053.379.04.127-.011.25-.048.36-.108.11-.06.204-.14.275-.236l2.745-3.723 2.746 3.72 1.442-.869-3.467-4.697c-.083-.1-.192-.183-.317-.24-.126-.056-.264-.086-.404-.086s-.278.03-.403.086c-.125.057-.234.14-.318.24l-2.88 3.905-2.72-2.456c-.162-.146-.382-.229-.612-.229-.23 0-.45.083-.613.23l-3.024 2.732-2.909-1.314c-.12-.054-.253-.083-.387-.083-.135 0-.268.029-.388.083l-2.212 1v-3.43h-1.734V27.4zM22.533 7.046v7.828c0 .208.092.407.254.554.163.146.383.229.613.229h20.8v-1.566H24.267v-1.864l2.6-1.175 3.079 1.395c.189.086.406.106.61.057.204-.05.381-.164.498-.323L33.8 8.455l2.746 3.72c.07.097.163.18.273.24.11.06.233.098.361.11.128.013.257 0 .378-.04.12-.039.23-.102.32-.185l2.855-2.582 2.854 2.578 1.226-1.107-3.467-3.131c-.162-.147-.383-.23-.613-.23-.23 0-.45.083-.612.23l-2.72 2.456-2.88-3.903c-.084-.101-.193-.183-.318-.24-.125-.057-.263-.086-.403-.086s-.278.03-.403.086c-.125.057-.234.139-.318.24l-3.043 4.123-2.782-1.258c-.12-.054-.253-.082-.387-.082-.135 0-.268.028-.388.082l-2.212 1v-3.43h-1.734zM8.667 23.485H4.333v1.566h4.334v-1.566zM19.933 23.485H10.4v1.566h9.533v-1.566zM12.133 26.617h-7.8v1.566h7.8v-1.566zM19.933 26.617h-6.066v1.566h6.066v-1.566zM48.533 46.188V37.66c.008-.566-.204-1.116-.6-1.555-.397-.439-.95-.738-1.566-.845-.374-.056-.757-.038-1.122.053-.365.09-.704.252-.992.474l-.053.04c-.476-.386-1.094-.6-1.733-.6-.64 0-1.258.214-1.734.6-.352-.273-.777-.46-1.232-.54-.456-.082-.926-.057-1.368.074v-3.264c.008-.566-.204-1.117-.6-1.556-.396-.439-.95-.738-1.566-.845-.373-.056-.755-.04-1.12.051-.365.09-.703.251-.992.472-.29.22-.521.495-.68.805-.16.31-.242.647-.242.989v8.878l-2.3-1.247c-.345-.188-.738-.294-1.141-.307-.404-.014-.804.065-1.164.229l-.136.06c-.37.168-.686.418-.917.728-.23.31-.369.668-.401 1.04-.033.373.042.746.217 1.084.174.339.443.63.78.848l5.425 3.5c.148.095.324.145.504.145h13.867c.23 0 .45-.083.612-.23.163-.146.254-.345.254-.553zm-1.733-.783H34.077l-5.2-3.354c-.085-.056-.155-.13-.203-.215-.049-.084-.074-.178-.074-.274 0-.111.034-.22.099-.316.065-.094.158-.17.268-.22l.136-.061c.1-.046.21-.068.322-.064.111.004.22.033.316.086l3.613 1.957c.131.071.281.11.434.112.154.001.305-.033.438-.102.134-.068.245-.167.322-.286.078-.12.118-.256.119-.394V32.013c0-.115.027-.228.08-.331.054-.104.133-.196.23-.27.097-.073.21-.127.333-.156.123-.03.251-.034.376-.014.21.046.395.157.525.312.13.156.197.348.189.543v5.48c0 .207.091.406.254.553.162.147.383.23.613.23.23 0 .45-.083.612-.23.163-.147.254-.346.254-.553 0-.208.092-.407.254-.554.163-.147.383-.23.613-.23.23 0 .45.083.613.23.162.147.254.346.254.554 0 .207.091.406.254.553.162.147.383.23.612.23.23 0 .45-.083.613-.23.163-.147.254-.346.254-.553 0-.208.091-.407.254-.554.162-.147.383-.23.613-.23.23 0 .45.083.613.23.162.147.253.346.253.554 0 .207.092.406.254.553.163.147.383.23.613.23.23 0 .45-.083.613-.23.162-.147.254-.346.254-.553 0-.115.027-.228.08-.332.054-.104.132-.196.23-.27.097-.073.21-.127.333-.156.123-.03.251-.034.376-.014.21.047.395.157.525.313s.197.347.189.542v7.745z"/>
</svg>
