<svg xmlns="http://www.w3.org/2000/svg" width="48" height="44" fill="none" viewBox="0 0 48 44">
    <path stroke="#000" stroke-miterlimit="10" stroke-width="2" d="M1 8.226h46M44 4.613h-2M40 4.613h-2M36 4.613h-2M31 4.613H5M24 31.712c6.075 0 11-4.449 11-9.936 0-5.488-4.925-9.937-11-9.937s-11 4.449-11 9.937c0 5.487 4.925 9.936 11 9.936zM17 21.776c0-3.523 3.1-6.323 7-6.323"/>
    <path stroke="#000" stroke-miterlimit="10" stroke-width="2" d="M28 31.08v7.858c0 1.987-1.8 3.613-4 3.613s-4-1.626-4-3.613v-7.949"/>
    <path stroke="#000" stroke-miterlimit="10" stroke-width="2" d="M20 36.228H4c-1.7 0-3-1.174-3-2.71V3.71C1 2.174 2.3 1 4 1h40c1.7 0 3 1.174 3 2.71v29.808c0 1.536-1.3 2.71-3 2.71H28"/>
    <path stroke="#000" stroke-dasharray="2 2" stroke-miterlimit="10" stroke-width="2" d="M24 33.518v5.42"/>
</svg>
