<svg xmlns="http://www.w3.org/2000/svg" width="60" height="60" fill="none" viewBox="0 0 60 60">
    <path fill="#000" d="M31 46h-2v2h2v-2zM27 46h-2v2h2v-2zM23 46h-2v2h2v-2zM39 46h-2v2h2v-2zM35 46h-2v2h2v-2zM31 50h-2v2h2v-2zM27 50h-2v2h2v-2zM35 50h-2v2h2v-2zM35 54H25v2h10v-2z"/>
    <path fill="#000" d="M2 49c0-.265.105-.52.293-.707C2.48 48.105 2.735 48 3 48c.133 0 .265.026.388.08.122.052.233.129.324.226.092.09.165.198.215.318.05.119.074.247.073.376v4h2v-4c0-.265.105-.52.293-.707C6.48 48.105 6.735 48 7 48c.133 0 .265.026.388.08.122.052.233.129.324.226.092.09.165.198.215.318.05.119.074.247.073.376v4h2v-4c0-.265.105-.52.293-.707.187-.188.442-.293.707-.293.133 0 .265.026.388.08.122.052.233.129.324.226.092.09.165.198.215.318.05.119.074.247.073.376v4h2v-4c0-.265.105-.52.293-.707.187-.188.442-.293.707-.293.133 0 .265.026.388.08.122.052.233.129.324.226.092.09.165.198.215.318.05.119.074.247.073.376v6c0 .177.047.35.136.504.09.153.218.28.372.366.154.087.328.132.505.13.177-.003.35-.052.502-.143l3.49-2.089c.187-.114.41-.151.624-.104.214.047.401.175.523.357.09.136.139.296.138.459 0 .141-.034.28-.102.404-.067.124-.165.228-.284.304l-4.46 2.98c-.179.12-.314.293-.387.495-.072.202-.077.422-.015.627.062.206.19.386.362.514.172.127.381.196.596.196h24c.215 0 .424-.069.596-.196.173-.128.3-.308.362-.514.063-.205.057-.425-.015-.627-.073-.202-.208-.376-.387-.495l-4.472-2.987c-.092-.061-.17-.14-.232-.231-.061-.092-.104-.195-.126-.303-.021-.108-.021-.22 0-.327.021-.108.064-.211.125-.303.122-.182.31-.31.524-.356.215-.046.439-.008.625.108l3.488 2.088c.152.09.325.139.501.141.177.002.35-.043.504-.13.154-.087.282-.213.37-.366.09-.152.137-.326.137-.502v-6c0-.133.026-.265.08-.388.052-.122.129-.233.226-.324.09-.092.198-.165.318-.215.119-.05.247-.074.376-.073.265 0 .52.105.707.293.188.187.293.442.293.707v4h2v-4c0-.133.026-.265.08-.388.052-.122.129-.233.226-.324.09-.092.198-.165.318-.215.119-.05.247-.074.376-.073.265 0 .52.105.707.293.188.187.293.442.293.707v4h2v-4c0-.133.026-.265.08-.388.052-.122.129-.233.226-.324.09-.092.198-.165.318-.215.119-.05.247-.074.376-.073.265 0 .52.105.707.293.188.187.293.442.293.707v4h2v-4c0-.133.026-.265.08-.388.052-.122.129-.233.226-.324.09-.092.198-.165.318-.215.119-.05.247-.074.376-.073.265 0 .52.105.707.293.188.187.293.442.293.707v11h2V49c0-.796-.316-1.559-.879-2.121C58.56 46.316 57.796 46 57 46c-.742-.002-1.456.278-2 .782-.546-.5-1.26-.78-2-.782-.742-.002-1.456.278-2 .782-.546-.5-1.26-.78-2-.782-.34.002-.679.061-1 .176V43c0-.265-.105-.52-.293-.707C47.52 42.105 47.265 42 47 42H3.5c-.398 0-.78-.158-1.06-.44-.282-.28-.44-.662-.44-1.06s.158-.78.44-1.06c.28-.282.662-.44 1.06-.44h10c.928 0 1.819-.369 2.475-1.025C16.63 37.318 17 36.428 17 35.5V34h7.612l-1.333 4H21v2h18v-2h-2.279l-1.333-4H50c1.06 0 2.078-.421 2.828-1.172C53.578 32.078 54 31.061 54 30V4c0-1.06-.421-2.078-1.172-2.828C52.078.422 51.061 0 50 0H10C8.94 0 7.922.421 7.172 1.172 6.422 1.922 6 2.939 6 4v26c0 1.06.421 2.078 1.172 2.828C7.922 33.578 8.939 34 10 34h5v1.5c0 .398-.158.78-.44 1.06-.28.282-.662.44-1.06.44h-10c-.928 0-1.819.369-2.475 1.025C.37 38.682 0 39.572 0 40.5c0 .928.369 1.819 1.025 2.475C1.682 43.63 2.572 44 3.5 44H12v2.176c-.508-.183-1.056-.224-1.585-.117-.53.107-1.019.358-1.415.724-.544-.504-1.258-.784-2-.783-.74.003-1.454.282-2 .783-.544-.504-1.258-.784-2-.783-.796 0-1.559.316-2.121.879C.316 47.44 0 48.204 0 49v11h2V49zm12-5h32v2.179c-.32-.117-.659-.177-1-.179-.742-.002-1.456.278-2 .783V46h-2v2h1.182c-.117.32-.179.659-.182 1v1h-1v2h1v1.234l-1.976-1.181c-.314-.19-.662-.316-1.024-.374V50h-2v2h.2c-.43.232-.794.572-1.054.987-.26.415-.408.89-.43 1.379-.02.489.085.975.308 1.41.223.436.555.807.964 1.076L38.7 58H21.3l1.7-1.141c.414-.265.752-.635.979-1.07.227-.437.336-.925.316-1.417-.02-.491-.17-.969-.432-1.385-.262-.416-.628-.757-1.063-.987h.2v-2h-2v1.679c-.362.057-.71.184-1.023.373L18 53.235V52h1v-2h-1v-1c-.003-.341-.064-.68-.181-1H19v-2h-2v.786c-.395-.369-.884-.62-1.414-.728-.53-.107-1.079-.065-1.586.121V44zm11.387-6l1.334-4h6.558l1.334 4h-9.226zM10 32c-.53 0-1.04-.21-1.414-.586C8.21 31.04 8 30.53 8 30V4c0-.53.21-1.04.586-1.414C8.96 2.21 9.47 2 10 2h40c.53 0 1.04.21 1.414.586C51.79 2.96 52 3.47 52 4v26c0 .53-.21 1.04-.586 1.414C51.04 31.79 50.53 32 50 32H10z"/>
    <path fill="#000" d="M32.512 10.006l-1.849.72.726 1.864 1.849-.72-.726-1.864zM28.38 11.633l-7.75 3.096.742 1.858 7.75-3.097-.743-1.857z"/>
    <path fill="#000" d="M26.911 28.413l1.529-3.376 8.227 2.906c.15.053.312.07.47.047.16-.021.31-.081.44-.174.131-.092.238-.214.311-.356.074-.143.112-.3.112-.46V5c0-.164-.04-.326-.117-.47-.078-.145-.19-.269-.325-.36-.136-.092-.293-.148-.456-.165-.163-.017-.328.007-.48.069L15.9 12.544l-4.7-.944c-.145-.03-.295-.027-.44.009-.143.035-.278.102-.393.196-.114.094-.207.212-.27.346-.064.134-.097.28-.097.429v8c0 .148.033.295.096.429.064.134.156.253.271.346.115.094.25.162.393.197.144.036.295.039.44.009l4.73-.946 1.676.592-1.341 2.866c-.058.123-.09.258-.096.394-.004.137.02.273.07.4s.125.243.222.34c.097.097.212.172.339.223l8.834 3.5c.116.046.24.07.366.07.192 0 .38-.055.542-.16.161-.104.29-.252.369-.427zm-10.578-9.772c-.17-.063-.355-.077-.533-.041l-3.8.761V13.8l3.8.761c.192.04.392.02.574-.055L36 6.489v19.1l-19.667-6.948zm9.149 8.078l-6.96-2.757.975-2.083 7.05 2.49-1.065 2.35zM49 16h-7v2h7v-2zM47.445 6.168l-6 4 1.11 1.664 6-4-1.11-1.664zM42.555 22.167l-1.11 1.664 6 4 1.11-1.664-6-4zM12 4h-2v2h2V4zM16 4h-2v2h2V4zM20 4h-2v2h2V4z"/>
</svg>
