<svg xmlns="http://www.w3.org/2000/svg" width="48" height="44" fill="none" viewBox="0 0 48 44">
    <path stroke="#000" stroke-miterlimit="10" stroke-width="2" d="M47 1H1v41.551h46V1zM1 8.226h46M44 4.613h-2M40 4.613h-2M36 4.613h-2"/>
    <path stroke="#000" stroke-miterlimit="10" stroke-width="2" d="M5 29.905l4-3.613 4 3.613 9-8.13 5 4.517 15-13.55"/>
    <path stroke="#000" stroke-miterlimit="10" stroke-width="2" d="M36 12.743h6v5.42M42 23.582v15.356M37 25.389v13.549M32 27.195v11.743M27 31.712v7.226M22 28.099v10.839M17 30.808v8.13M12 33.518v5.42M7 32.615v6.323"/>
</svg>
