<svg xmlns="http://www.w3.org/2000/svg" width="60" height="60" fill="none" viewBox="0 0 60 60">
    <path fill="#000" d="M42 41V31c-.003-2.386-.952-4.674-2.639-6.361C37.674 22.952 35.386 22.003 33 22H17c-2.386.003-4.674.952-6.361 2.639-1.687 1.687-2.636 3.975-2.639 6.36v13h2V31c.002-1.855.74-3.634 2.053-4.947C13.365 24.74 15.144 24.002 17 24h1.586l5.707 5.707c.188.187.442.293.707.293.265 0 .52-.106.707-.293L31.414 24H33c1.856.002 3.635.74 4.947 2.052C39.26 27.365 39.997 29.144 40 31v10h2zM25 27.586L21.414 24h7.172L25 27.586z"/>
    <path fill="#000" d="M17 33h-2v9h2v-9zM35 33h-2v7h2v-7zM54 44H41.247c-2.204-1.207-4.67-1.856-7.182-1.89-.076-.007-.155-.01-.225-.01-2.589 0-5.136.65-7.409 1.888L19 44c-1.06 0-2.078.422-2.828 1.172S15 46.939 15 48c-.001.08.004.158.014.237.015.274.059.546.13.811l-5.637-2.583-.091-.045-3.367-1.538c-.65-.3-1.365-.43-2.079-.38-.714.05-1.404.278-2.006.664-.603.387-1.098.918-1.442 1.546C.18 47.34 0 48.044 0 48.76v.22c-.003.793.216 1.572.634 2.246.417.674 1.016 1.218 1.728 1.568l12.93 6.475c.973.48 2.043.73 3.128.731H54c.265 0 .52-.105.707-.293.188-.187.293-.442.293-.707V45c0-.265-.105-.52-.293-.707C54.52 44.105 54.265 44 54 44zM40 58H18.42c-.778-.001-1.544-.18-2.242-.524L3.254 51c-.377-.185-.695-.473-.917-.83C2.116 49.813 2 49.4 2 48.98v-.22c0-.38.096-.754.278-1.088.182-.333.446-.616.766-.82.32-.206.686-.327 1.066-.354.379-.026.759.043 1.104.202l3.339 1.525.09.044 7.939 3.64c.131.06.274.091.418.091h11v-2h-9c-.514 0-1.009-.198-1.38-.554-.371-.355-.59-.841-.611-1.355-.001-.034-.004-.067-.009-.1.002-.529.214-1.035.589-1.408S18.471 46 19 46h7.67c.171 0 .34-.044.489-.128l.24-.135c1.968-1.07 4.17-1.635 6.409-1.646.06.012.122.018.184.019 2.092.02 4.15.53 6.008 1.49V58zm13 0H42V46h11v12z"/>
    <path fill="#000" d="M46 54h-2v2h2v-2zM25 20c2.121-.002 4.154-.846 5.654-2.346S32.998 14.121 33 12V8c0-2.122-.843-4.157-2.343-5.657S27.122 0 25 0s-4.157.843-5.657 2.343S17 5.878 17 8v4c.002 2.121.846 4.154 2.346 5.654S22.879 19.998 25 20zM19 8c0-1.591.632-3.117 1.757-4.243C21.882 2.632 23.41 2 25 2c1.591 0 3.117.632 4.243 1.757C30.368 4.883 31 6.41 31 8v4c0 1.591-.632 3.117-1.757 4.243C28.117 17.368 26.59 18 25 18c-1.591 0-3.117-.632-4.243-1.757C19.632 15.117 19 13.59 19 12V8z"/>
    <path fill="#000" d="M23 8c0-.414.13-.817.368-1.154.239-.338.576-.593.966-.732l-.668-1.885c-.78.277-1.454.788-1.93 1.463C21.257 6.367 21 7.173 21 8v1h2V8z"/>
</svg>
