<svg xmlns="http://www.w3.org/2000/svg" width="52" height="44" fill="none" viewBox="0 0 52 47">
    <path fill="#000" d="M38.605 46.97H11.662c-1.652 0-2.995-1.213-2.995-2.705v-7.471c0-.432.388-.783.866-.783h31.2c.479 0 .867.35.867.783v7.471c0 1.492-1.343 2.706-2.995 2.706zM10.4 37.578v6.688c0 .629.566 1.14 1.262 1.14h26.944c.695 0 1.26-.511 1.26-1.14v-6.688H10.4z"/>
    <path fill="#000" d="M25.133 44.622c-1.911 0-3.466-1.404-3.466-3.131 0-1.727 1.555-3.132 3.466-3.132 1.912 0 3.467 1.405 3.467 3.132s-1.555 3.131-3.467 3.131zm0-4.697c-.956 0-1.733.702-1.733 1.566 0 .863.777 1.566 1.733 1.566.956 0 1.734-.703 1.734-1.566 0-.864-.778-1.566-1.734-1.566z"/>
    <path fill="#000" d="M38.605 46.97H11.662c-1.652 0-2.995-1.213-2.995-2.705V30.531c0-.432.388-.783.866-.783H18.2c.23 0 .45.082.613.23l1.987 1.795V25.05H9.533c-.478 0-.866-.35-.866-.783V2.706C8.667 1.213 10.01 0 11.662 0h26.944c1.65 0 2.994 1.213 2.994 2.706v1.991c0 .432-.388.783-.867.783H26v14.55l1.987-1.795c.163-.147.383-.23.613-.23h12.133c.479 0 .867.351.867.783v25.477c0 1.492-1.343 2.706-2.995 2.706zM10.4 31.315v12.951c0 .629.566 1.14 1.262 1.14h26.944c.695 0 1.26-.511 1.26-1.14V19.571H28.96l-3.214 2.902c-.248.224-.62.29-.944.17-.324-.121-.535-.407-.535-.723V4.697c0-.432.388-.783.866-.783h14.734V2.706c0-.63-.566-1.14-1.262-1.14H11.662c-.696 0-1.262.51-1.262 1.14v20.78h11.267c.478 0 .866.35.866.782v9.394c0 .317-.211.602-.534.724-.324.12-.697.054-.945-.17l-3.214-2.902H10.4z"/>
    <path fill="#000" d="M25.133 22.703c-.111 0-.224-.02-.332-.06-.323-.121-.534-.407-.534-.723V4.697c0-.432.388-.783.866-.783h26c.479 0 .867.35.867.783v14.091c0 .432-.388.783-.867.783H28.96l-3.214 2.902c-.165.15-.387.23-.613.23zM26 5.48v14.55l1.987-1.795c.163-.147.383-.23.613-.23h21.667V5.48H26zM21.667 34.445c-.226 0-.448-.08-.613-.23l-3.214-2.901H.867c-.479 0-.867-.35-.867-.783v-6.263c0-.432.388-.783.867-.783h20.8c.478 0 .866.351.866.783v9.394c0 .317-.211.602-.534.724-.108.04-.22.06-.332.06zM1.733 29.748H18.2c.23 0 .45.082.613.23l1.987 1.795V25.05H1.733v4.697z"/>
    <path fill="#000" d="M39.867 12.525h-10.4c-.479 0-.867-.35-.867-.782 0-.432.388-.783.867-.783h10.4c.478 0 .867.35.867.783 0 .432-.389.782-.867.782zM46.8 12.525h-3.466c-.479 0-.867-.35-.867-.782 0-.432.388-.783.867-.783H46.8c.479 0 .867.35.867.783 0 .432-.388.782-.867.782zM46.8 9.394H36.4c-.478 0-.867-.35-.867-.783 0-.432.389-.783.867-.783h10.4c.478 0 .867.351.867.783 0 .432-.389.783-.867.783zM32.934 9.394h-3.467c-.479 0-.867-.35-.867-.783 0-.432.388-.783.867-.783h3.467c.478 0 .866.351.866.783 0 .432-.388.783-.866.783zM46.8 15.657H36.4c-.478 0-.867-.35-.867-.783 0-.432.389-.783.867-.783h10.4c.478 0 .867.351.867.783 0 .432-.389.783-.867.783zM32.934 15.657h-3.467c-.479 0-.867-.35-.867-.783 0-.432.388-.783.867-.783h3.467c.478 0 .866.351.866.783 0 .432-.388.783-.866.783z"/>
</svg>
