<svg xmlns="http://www.w3.org/2000/svg" width="483" height="379" fill="none" viewBox="0 0 483 379">
    <rect width="336.144" height="252.108" x="109.058" y="126.054" fill="#F8F9FA" stroke="#F1F3F5" stroke-width=".944" rx="8.966"/>
    <path fill="#E9ECEF" d="M307.817 339.921H470.22400000000005V345.586H307.817zM421.124 352.196H470.22400000000005V357.86100000000005H421.124z"/>
    <circle cx="91.59" cy="179.403" r="72.705" fill="#36CBA1"/>
    <g clip-path="url(#prefix__clip0)">
        <path fill="#fff" d="M78.331 175.71c1.27 0 2.314-.502 3.12-1.441l-1.03-1.216c-.53.569-1.19.965-2.024.965-1.546 0-2.55-1.282-2.55-3.41 0-2.102 1.11-3.371 2.59-3.371.74 0 1.309.344 1.798.819l1.031-1.242c-.634-.661-1.626-1.256-2.869-1.256-2.471 0-4.547 1.89-4.547 5.116 0 3.265 2.01 5.036 4.481 5.036zm7.348 0c1.85 0 3.556-1.427 3.556-3.873 0-2.472-1.706-3.899-3.556-3.899-1.851 0-3.556 1.427-3.556 3.899 0 2.446 1.705 3.873 3.556 3.873zm0-1.586c-1.005 0-1.573-.899-1.573-2.287 0-1.401.568-2.313 1.573-2.313 1.004 0 1.573.912 1.573 2.313 0 1.388-.569 2.287-1.573 2.287zm8.044 1.586c.82 0 1.719-.277 2.42-.899l-.767-1.282c-.41.344-.913.595-1.441.595-1.071 0-1.838-.899-1.838-2.287 0-1.401.767-2.313 1.89-2.313.424 0 .767.172 1.137.489l.926-1.256c-.542-.463-1.243-.819-2.155-.819-2.01 0-3.78 1.427-3.78 3.899 0 2.446 1.56 3.873 3.608 3.873zm6.235 0c1.85 0 3.556-1.427 3.556-3.873 0-2.472-1.706-3.899-3.556-3.899s-3.556 1.427-3.556 3.899c0 2.446 1.705 3.873 3.556 3.873zm0-1.586c-1.005 0-1.573-.899-1.573-2.287 0-1.401.568-2.313 1.573-2.313 1.004 0 1.573.912 1.573 2.313 0 1.388-.569 2.287-1.573 2.287zm6.542 1.586c.846 0 1.586-.423 2.234-.978h.039l.146.793h1.586v-4.322c0-2.142-.965-3.265-2.842-3.265-1.163 0-2.221.436-3.093.978l.7 1.282c.688-.397 1.349-.701 2.036-.701.912 0 1.229.556 1.256 1.283-2.974.317-4.257 1.15-4.257 2.736 0 1.256.873 2.194 2.195 2.194zm.634-1.52c-.568 0-.978-.251-.978-.833 0-.661.608-1.15 2.406-1.388v1.494c-.463.463-.873.727-1.428.727zM80.794 194.595c1.81 0 3.423-1.256 3.423-3.437 0-2.128-1.374-3.107-3.014-3.107-.45 0-.793.093-1.176.278l.185-2.075h3.556v-1.626h-5.235l-.264 4.745.885.582c.569-.37.886-.516 1.468-.516.991 0 1.652.635 1.652 1.772 0 1.15-.714 1.798-1.732 1.798-.912 0-1.6-.45-2.154-.992l-.9 1.243c.728.727 1.759 1.335 3.306 1.335zm7.99-1.467c-.82 0-1.48-.688-1.666-2.472.49-.754 1.07-1.032 1.6-1.032.846 0 1.388.542 1.388 1.706 0 1.189-.595 1.798-1.322 1.798zm2.96-7.575c-.594-.608-1.466-1.11-2.656-1.11-1.97 0-3.78 1.559-3.78 5.208 0 3.45 1.651 4.944 3.515 4.944 1.666 0 3.067-1.256 3.067-3.265 0-2.102-1.163-3.08-2.802-3.08-.635 0-1.48.396-2.01 1.044.08-2.446 1.005-3.292 2.129-3.292.568 0 1.163.318 1.507.714l1.03-1.163zm4.025 9.042c1.864 0 3.437-1.044 3.437-2.842 0-1.283-.846-2.102-1.956-2.406v-.066c1.044-.41 1.639-1.177 1.639-2.234 0-1.679-1.282-2.604-3.173-2.604-1.15 0-2.088.462-2.934 1.202l.991 1.19c.582-.529 1.15-.859 1.85-.872.834.013 1.31.462 1.31 1.229 0 .873-.582 1.494-2.38 1.494v1.401c2.128 0 2.697.595 2.697 1.56 0 .872-.674 1.362-1.666 1.362-.886 0-1.6-.437-2.181-1.005l-.912 1.229c.687.78 1.732 1.362 3.278 1.362zm6.338-.185h1.97c.158-3.834.462-5.83 2.736-8.606v-1.176h-6.504v1.626h4.402c-1.864 2.591-2.432 4.758-2.604 8.156z"/>
    </g>
    <circle cx="186.956" cy="125.582" r="34.936" fill="#FF7F7E"/>
    <g clip-path="url(#prefix__clip1)">
        <path fill="#fff" d="M175.41 122.695c1.087 0 1.983-.431 2.674-1.235l-.884-1.043c-.453.488-1.02.828-1.734.828-1.325 0-2.186-1.1-2.186-2.924 0-1.801.951-2.889 2.22-2.889.635 0 1.122.294 1.541.702l.884-1.065c-.544-.566-1.394-1.076-2.459-1.076-2.118 0-3.897 1.62-3.897 4.385 0 2.799 1.722 4.317 3.841 4.317zm6.257 0c1.586 0 3.048-1.224 3.048-3.32 0-2.119-1.462-3.343-3.048-3.343s-3.048 1.224-3.048 3.343c0 2.096 1.462 3.32 3.048 3.32zm0-1.36c-.861 0-1.349-.77-1.349-1.96 0-1.201.488-1.983 1.349-1.983s1.348.782 1.348 1.983c0 1.19-.487 1.96-1.348 1.96zm6.855 1.36c.702 0 1.473-.238 2.073-.771l-.657-1.099c-.351.295-.782.51-1.235.51-.918 0-1.575-.77-1.575-1.96 0-1.201.657-1.983 1.62-1.983.363 0 .657.147.975.419l.793-1.076c-.465-.397-1.065-.703-1.847-.703-1.722 0-3.241 1.224-3.241 3.343 0 2.096 1.337 3.32 3.094 3.32zm5.303 0c1.586 0 3.048-1.224 3.048-3.32 0-2.119-1.462-3.343-3.048-3.343s-3.048 1.224-3.048 3.343c0 2.096 1.462 3.32 3.048 3.32zm0-1.36c-.861 0-1.348-.77-1.348-1.96 0-1.201.487-1.983 1.348-1.983.861 0 1.349.782 1.349 1.983 0 1.19-.488 1.96-1.349 1.96zm5.567 1.36c.725 0 1.36-.363 1.915-.839h.034l.125.68h1.359v-3.705c0-1.835-.827-2.799-2.436-2.799-.997 0-1.903.374-2.651.839l.6 1.099c.589-.34 1.156-.601 1.745-.601.782 0 1.054.476 1.077 1.1-2.55.271-3.649.985-3.649 2.345 0 1.076.748 1.881 1.881 1.881zm.544-1.303c-.487 0-.839-.215-.839-.714 0-.567.522-.986 2.063-1.19v1.281c-.397.396-.748.623-1.224.623zM175.302 138.588h5.042v-1.348h-1.575v-7.037h-1.235c-.533.329-1.111.544-1.949.703v1.031h1.518v5.303h-1.801v1.348zm6.389 0h5.042v-1.348h-1.575v-7.037h-1.235c-.533.329-1.111.544-1.949.703v1.031h1.518v5.303h-1.801v1.348zm5.947 0h5.62v-1.405h-1.824c-.386 0-.941.045-1.36.091 1.53-1.496 2.787-3.128 2.787-4.646 0-1.564-1.054-2.583-2.64-2.583-1.144 0-1.892.453-2.663 1.269l.907.906c.419-.464.929-.861 1.541-.861.793 0 1.258.51 1.258 1.36 0 1.291-1.349 2.866-3.626 4.906v.963zm9.006.159c1.598 0 2.946-.895 2.946-2.436 0-1.099-.725-1.802-1.677-2.063v-.056c.895-.352 1.405-1.009 1.405-1.915 0-1.439-1.099-2.232-2.719-2.232-.986 0-1.79.396-2.516 1.031l.85 1.02c.499-.454.986-.737 1.587-.748.713.011 1.121.396 1.121 1.053 0 .748-.498 1.281-2.039 1.281v1.201c1.824 0 2.311.51 2.311 1.337 0 .748-.578 1.167-1.427 1.167-.76 0-1.371-.374-1.87-.861l-.782 1.054c.589.668 1.485 1.167 2.81 1.167z"/>
    </g>
    <circle cx="34.936" cy="273.825" r="34.936" fill="#FFEE67"/>
    <g clip-path="url(#prefix__clip2)">
        <path fill="#fff" d="M10.188 270.779h2.992c1.847 0 3.252-.781 3.252-2.47 0-1.133-.669-1.767-1.575-1.982v-.057c.713-.249 1.144-1.043 1.144-1.813 0-1.564-1.314-2.062-3.037-2.062h-2.776v8.384zm1.677-4.974v-2.13h.997c1.009 0 1.507.295 1.507 1.031 0 .669-.464 1.099-1.53 1.099h-.974zm0 3.683v-2.436h1.167c1.156 0 1.768.34 1.768 1.155 0 .873-.623 1.281-1.768 1.281h-1.167zm7.18 1.45c.725 0 1.36-.362 1.915-.838h.034l.125.679h1.36v-3.705c0-1.835-.828-2.798-2.437-2.798-.997 0-1.903.374-2.651.838l.6 1.099c.59-.34 1.156-.6 1.745-.6.782 0 1.054.476 1.077 1.099-2.55.272-3.649.986-3.649 2.345 0 1.077.748 1.881 1.881 1.881zm.544-1.303c-.487 0-.838-.215-.838-.714 0-.566.52-.986 2.062-1.189v1.28c-.397.396-.748.623-1.224.623zm4.304 1.144h1.62v-1.586l.918-1.042 1.54 2.628h1.802l-2.402-3.75 2.198-2.595h-1.813l-2.198 2.742h-.045v-5.438h-1.62v9.041zm8.998.159c.793 0 1.598-.272 2.221-.702l-.567-1.02c-.453.283-.906.442-1.427.442-.94 0-1.62-.544-1.757-1.587h3.91c.045-.147.079-.453.079-.759 0-1.756-.907-3.036-2.651-3.036-1.519 0-2.958 1.28-2.958 3.342 0 2.085 1.383 3.32 3.15 3.32zm-1.552-3.966c.125-.929.714-1.405 1.382-1.405.816 0 1.201.544 1.201 1.405H31.34zm6.912 3.966c1.655 0 2.527-.895 2.527-2.005 0-1.179-.93-1.598-1.768-1.915-.668-.25-1.291-.42-1.291-.884 0-.363.272-.612.838-.612.476 0 .918.227 1.371.544l.748-1.009c-.533-.396-1.235-.781-2.164-.781-1.428 0-2.357.804-2.357 1.949 0 1.053.93 1.541 1.734 1.846.668.261 1.325.476 1.325.952 0 .397-.283.669-.917.669-.59 0-1.133-.25-1.7-.691l-.76 1.042c.624.521 1.564.895 2.414.895zm5.934-.159h1.677V267.8h1.121c1.802 0 3.241-.862 3.241-2.776 0-1.983-1.427-2.629-3.286-2.629h-2.753v8.384zm1.677-4.305v-2.754h.952c1.155 0 1.767.329 1.767 1.304 0 .963-.555 1.45-1.71 1.45h-1.01zm7.825 4.464c1.586 0 3.048-1.224 3.048-3.32 0-2.119-1.462-3.342-3.048-3.342-1.587 0-3.048 1.223-3.048 3.342 0 2.096 1.461 3.32 3.048 3.32zm0-1.36c-.861 0-1.349-.77-1.349-1.96 0-1.201.488-1.983 1.349-1.983.86 0 1.348.782 1.348 1.983 0 1.19-.487 1.96-1.348 1.96zm6.16 1.36c.555 0 .997-.125 1.337-.238l-.272-1.212c-.17.068-.42.136-.623.136-.567 0-.861-.34-.861-1.065v-2.81h1.563v-1.315h-1.563v-1.699h-1.394l-.193 1.699-.974.08v1.235h.895v2.81c0 1.427.578 2.379 2.085 2.379zM23.282 286.831h5.042v-1.348h-1.575v-7.036h-1.235c-.533.328-1.11.543-1.95.702v1.031h1.52v5.303h-1.802v1.348zm5.947 0h5.62v-1.405h-1.824c-.386 0-.941.046-1.36.091 1.53-1.496 2.787-3.127 2.787-4.646 0-1.563-1.054-2.583-2.64-2.583-1.144 0-1.892.453-2.663 1.269l.907.906c.42-.464.929-.861 1.54-.861.794 0 1.259.51 1.259 1.36 0 1.292-1.349 2.867-3.626 4.906v.963zm9.074-4.294c-.725 0-1.19-.465-1.19-1.45 0-1.031.51-1.541 1.133-1.541.714 0 1.292.566 1.44 2.096-.408.646-.93.895-1.383.895zm-2.583 3.501c.498.51 1.257.952 2.3.952 1.665 0 3.218-1.371 3.218-4.544 0-2.912-1.428-4.158-3.014-4.158-1.44 0-2.64 1.076-2.64 2.799 0 1.779 1.008 2.64 2.402 2.64.578 0 1.292-.352 1.722-.918-.068 2.107-.85 2.821-1.79 2.821-.499 0-1.02-.26-1.326-.589l-.872.997zm8.904.952c1.598 0 2.946-.895 2.946-2.436 0-1.099-.725-1.802-1.677-2.062v-.057c.895-.351 1.405-1.008 1.405-1.915 0-1.439-1.099-2.232-2.72-2.232-.985 0-1.79.397-2.515 1.031l.85 1.02c.499-.453.986-.737 1.587-.748.713.011 1.121.397 1.121 1.054 0 .748-.498 1.28-2.04 1.28v1.201c1.825 0 2.312.51 2.312 1.337 0 .748-.578 1.167-1.428 1.167-.759 0-1.37-.374-1.87-.861l-.78 1.054c.588.668 1.483 1.167 2.81 1.167z"/>
    </g>
    <circle cx="127.942" cy="55.237" r="55.237" fill="#3BA2E7"/>
    <g clip-path="url(#prefix__clip3)">
        <path fill="#3BA2E7" d="M104.001 39.185H152.945V71.289H104.001z"/>
        <path fill="#fff" d="M116.36 52.35c2.221 0 3.75-1.665 3.75-4.385 0-2.72-1.529-4.317-3.75-4.317s-3.751 1.586-3.751 4.317c0 2.72 1.53 4.385 3.751 4.385zm0-1.45c-1.247 0-2.04-1.145-2.04-2.935 0-1.801.793-2.878 2.04-2.878 1.246 0 2.039 1.077 2.039 2.878 0 1.79-.793 2.935-2.039 2.935zm6.532 1.45c.386 0 .669-.068.861-.147l-.204-1.235c-.113.022-.158.022-.226.022-.159 0-.34-.124-.34-.498V43.15h-1.654v7.263c0 1.178.408 1.937 1.563 1.937zm1.727-.158h1.655v-6.346h-1.655v6.346zm.839-7.365c.566 0 .986-.386.986-.907 0-.544-.42-.906-.986-.906-.578 0-.997.362-.997.906 0 .521.419.907.997.907zm3.747 7.365h1.926l2.119-6.346h-1.597l-.93 3.162c-.17.623-.351 1.28-.509 1.926h-.057c-.17-.646-.351-1.303-.51-1.926l-.929-3.162h-1.677l2.164 6.346zm7.482.158c.794 0 1.598-.272 2.221-.702l-.566-1.02c-.454.283-.907.442-1.428.442-.94 0-1.62-.544-1.756-1.586h3.909c.045-.148.079-.454.079-.76 0-1.756-.906-3.036-2.651-3.036-1.519 0-2.958 1.28-2.958 3.342 0 2.085 1.383 3.32 3.15 3.32zm-1.552-3.965c.125-.93.714-1.405 1.382-1.405.816 0 1.201.543 1.201 1.405h-2.583zm6.912 3.965c1.655 0 2.527-.895 2.527-2.005 0-1.179-.929-1.598-1.767-1.915-.669-.25-1.292-.42-1.292-.884 0-.363.272-.612.838-.612.476 0 .918.227 1.371.544l.748-1.008c-.532-.397-1.235-.782-2.164-.782-1.428 0-2.357.804-2.357 1.949 0 1.053.929 1.54 1.734 1.847.668.26 1.326.475 1.326.951 0 .397-.284.669-.918.669-.589 0-1.133-.25-1.7-.691l-.759 1.042c.623.521 1.564.895 2.413.895zM116.483 68.243h5.042v-1.348h-1.575V59.86h-1.235c-.532.328-1.11.544-1.949.702v1.031h1.519v5.303h-1.802v1.348zm8.564.159c1.598 0 2.946-.895 2.946-2.436 0-1.1-.725-1.802-1.677-2.062v-.057c.896-.351 1.405-1.008 1.405-1.915 0-1.439-1.099-2.232-2.719-2.232-.986 0-1.79.397-2.515 1.031l.849 1.02c.499-.453.986-.737 1.587-.748.714.011 1.122.397 1.122 1.054 0 .748-.499 1.28-2.04 1.28v1.201c1.824 0 2.311.51 2.311 1.337 0 .748-.577 1.167-1.427 1.167-.759 0-1.371-.374-1.87-.86l-.782 1.053c.59.668 1.485 1.167 2.81 1.167zm3.772-.159h5.62v-1.405h-1.824c-.385 0-.941.046-1.36.091 1.53-1.496 2.787-3.127 2.787-4.646 0-1.563-1.053-2.583-2.64-2.583-1.144 0-1.892.453-2.662 1.27l.906.906c.419-.465.929-.862 1.541-.862.793 0 1.258.51 1.258 1.36 0 1.292-1.348 2.867-3.626 4.906v.963zm9.233.159c1.7 0 2.821-.974 2.821-2.243 0-1.145-.634-1.825-1.405-2.244v-.057c.556-.396 1.077-1.087 1.077-1.914 0-1.338-.952-2.233-2.436-2.233-1.462 0-2.527.861-2.527 2.21 0 .895.465 1.53 1.11 1.994v.057c-.781.419-1.439 1.11-1.439 2.187 0 1.314 1.201 2.243 2.799 2.243zm.533-4.952c-.884-.35-1.53-.736-1.53-1.53 0-.668.453-1.041 1.02-1.041.702 0 1.11.487 1.11 1.166 0 .5-.192.975-.6 1.405zm-.488 3.774c-.781 0-1.405-.488-1.405-1.247 0-.623.318-1.19.771-1.552 1.088.442 1.858.804 1.858 1.677 0 .725-.521 1.122-1.224 1.122z"/>
    </g>
    <circle cx="203.008" cy="71.761" r="19.829" fill="#CED4DA"/>
    <g clip-path="url(#prefix__clip4)">
        <path fill="#fff" d="M196.547 68.715h1.677v-6.99h2.379V60.33h-6.413v1.393h2.357v6.991zm6.809.16c.794 0 1.598-.273 2.221-.703l-.566-1.02c-.454.283-.907.442-1.428.442-.94 0-1.62-.544-1.756-1.587h3.909c.045-.147.079-.453.079-.759 0-1.756-.906-3.036-2.651-3.036-1.518 0-2.957 1.28-2.957 3.342 0 2.085 1.382 3.32 3.149 3.32zm-1.552-3.967c.125-.929.714-1.405 1.382-1.405.816 0 1.202.544 1.202 1.405h-2.584zm6.508 3.966c.725 0 1.36-.362 1.915-.838h.034l.125.68h1.359V65.01c0-1.835-.827-2.798-2.436-2.798-.997 0-1.903.373-2.651.838l.601 1.1c.589-.34 1.155-.601 1.744-.601.782 0 1.054.476 1.077 1.099-2.55.272-3.649.986-3.649 2.345 0 1.077.748 1.881 1.881 1.881zm.544-1.303c-.487 0-.838-.215-.838-.714 0-.566.521-.986 2.062-1.19v1.28c-.397.397-.748.624-1.224.624zM195.581 84.767h1.689c.136-3.286.396-4.997 2.345-7.376v-1.008h-5.575v1.393h3.773c-1.597 2.221-2.084 4.08-2.232 6.991zm4.769 0h5.62v-1.405h-1.824c-.385 0-.941.046-1.36.09 1.53-1.495 2.787-3.126 2.787-4.645 0-1.563-1.053-2.583-2.64-2.583-1.144 0-1.892.453-2.662 1.269l.906.906c.419-.464.929-.86 1.541-.86.793 0 1.258.51 1.258 1.359 0 1.292-1.348 2.867-3.626 4.906v.963zm9.244.159c1.7 0 2.833-1.496 2.833-4.385 0-2.89-1.133-4.317-2.833-4.317-1.711 0-2.844 1.416-2.844 4.317 0 2.89 1.133 4.385 2.844 4.385zm0-1.303c-.725 0-1.269-.725-1.269-3.082 0-2.346.544-3.025 1.269-3.025.714 0 1.258.68 1.258 3.025 0 2.357-.544 3.082-1.258 3.082z"/>
    </g>
    <circle cx="38.713" cy="84.036" r="33.992" fill="#CED4DA"/>
    <g clip-path="url(#prefix__clip5)">
        <path fill="#CED4DA" d="M14.018 67.984H64.062V100.088H14.018z"/>
        <path fill="#fff" d="M16.704 77.535l.25-.918c.249-.873.498-1.824.713-2.742h.046c.249.906.476 1.87.736 2.742l.25.918h-1.995zm2.946 3.455h1.757l-2.697-8.384h-1.972l-2.685 8.384h1.7l.589-2.152h2.719l.59 2.152zm2.319 2.437h1.654V81.5l-.045-1.042c.487.442 1.02.691 1.575.691 1.393 0 2.696-1.258 2.696-3.433 0-1.949-.929-3.23-2.492-3.23-.68 0-1.337.363-1.87.816h-.045l-.114-.657h-1.36v8.782zm2.81-3.649c-.34 0-.748-.125-1.156-.476v-2.787c.442-.442.827-.657 1.258-.657.872 0 1.258.668 1.258 1.88 0 1.383-.59 2.04-1.36 2.04zm4.198 3.648h1.655V81.5l-.046-1.042c.488.442 1.02.691 1.575.691 1.394 0 2.697-1.258 2.697-3.433 0-1.949-.93-3.23-2.493-3.23-.68 0-1.337.363-1.87.816h-.045l-.113-.657h-1.36v8.782zm2.81-3.648c-.34 0-.747-.125-1.155-.476v-2.787c.442-.442.827-.657 1.257-.657.873 0 1.258.668 1.258 1.88 0 1.383-.59 2.04-1.36 2.04zm5.763 1.371c.385 0 .668-.068.86-.147l-.203-1.235c-.113.022-.159.022-.227.022-.158 0-.34-.124-.34-.498v-7.342h-1.654v7.263c0 1.178.408 1.937 1.564 1.937zm4.48 0c.793 0 1.598-.272 2.221-.702l-.566-1.02c-.454.283-.907.442-1.428.442-.94 0-1.62-.544-1.756-1.587h3.909c.045-.147.079-.453.079-.759 0-1.756-.906-3.036-2.651-3.036-1.519 0-2.958 1.28-2.958 3.342 0 2.085 1.383 3.32 3.15 3.32zm-1.552-3.966c.124-.929.714-1.405 1.382-1.405.816 0 1.201.544 1.201 1.405h-2.583zm7.52 3.807h1.676v-2.98h1.122c1.801 0 3.24-.86 3.24-2.776 0-1.982-1.427-2.628-3.285-2.628h-2.754v8.384zm1.676-4.305V73.93h.952c1.156 0 1.767.329 1.767 1.303 0 .964-.555 1.45-1.71 1.45h-1.009zm5.461 4.305h1.655v-6.345h-1.655v6.345zm.839-7.364c.566 0 .986-.386.986-.907 0-.544-.42-.906-.986-.906-.578 0-.997.362-.997.906 0 .521.419.907.997.907zm5.073 7.523c.793 0 1.597-.272 2.22-.702l-.566-1.02c-.453.283-.906.442-1.428.442-.94 0-1.62-.544-1.756-1.587h3.91c.044-.147.078-.453.078-.759 0-1.756-.906-3.036-2.65-3.036-1.52 0-2.958 1.28-2.958 3.342 0 2.085 1.382 3.32 3.15 3.32zm-1.553-3.966c.125-.929.714-1.405 1.383-1.405.816 0 1.2.544 1.2 1.405h-2.583zM27.05 97.042h5.042v-1.348h-1.575v-7.037h-1.235c-.533.329-1.11.544-1.95.703v1.031h1.52v5.303h-1.803v1.348zm8.564.159c1.598 0 2.946-.895 2.946-2.436 0-1.1-.725-1.802-1.677-2.063v-.056c.895-.351 1.405-1.009 1.405-1.915 0-1.439-1.099-2.232-2.72-2.232-.985 0-1.79.396-2.515 1.03l.85 1.02c.499-.453.986-.736 1.586-.747.714.011 1.122.396 1.122 1.054 0 .747-.498 1.28-2.04 1.28v1.201c1.825 0 2.312.51 2.312 1.337 0 .748-.578 1.167-1.428 1.167-.759 0-1.37-.374-1.87-.861l-.781 1.054c.59.668 1.484 1.167 2.81 1.167zm3.772-.159h5.62v-1.405H43.18c-.385 0-.94.046-1.36.09 1.53-1.495 2.788-3.127 2.788-4.645 0-1.563-1.054-2.583-2.64-2.583-1.144 0-1.892.453-2.663 1.269l.907.906c.419-.464.929-.86 1.54-.86.794 0 1.258.51 1.258 1.359 0 1.292-1.348 2.867-3.625 4.906v.963zm6.83 0h5.043v-1.348h-1.575v-7.037h-1.235c-.533.329-1.11.544-1.95.703v1.031h1.52v5.303h-1.802v1.348z"/>
    </g>
    <circle cx="251.164" cy="163.351" r="35.88" fill="#6AC0BB"/>
    <g clip-path="url(#prefix__clip6)">
        <path fill="#fff" d="M226.928 154.64h5.076v-1.405h-3.399v-6.98h-1.677v8.385zm8.708.159c.793 0 1.597-.272 2.221-.703l-.567-1.02c-.453.284-.906.442-1.428.442-.94 0-1.62-.544-1.756-1.586h3.909c.045-.147.079-.453.079-.759 0-1.757-.906-3.037-2.651-3.037-1.518 0-2.957 1.28-2.957 3.343 0 2.084 1.382 3.32 3.15 3.32zm-1.553-3.966c.125-.929.714-1.405 1.383-1.405.816 0 1.201.544 1.201 1.405h-2.584zm7.29 3.966c.555 0 .997-.125 1.337-.238l-.272-1.213c-.17.068-.419.136-.623.136-.567 0-.861-.34-.861-1.065v-2.81h1.563v-1.314h-1.563v-1.7h-1.394l-.193 1.7-.974.079v1.235h.895v2.81c0 1.428.578 2.38 2.085 2.38zm4.209 0c.555 0 .997-.125 1.337-.238l-.272-1.213c-.17.068-.419.136-.623.136-.567 0-.861-.34-.861-1.065v-2.81h1.563v-1.314h-1.563v-1.7h-1.394l-.193 1.7-.974.079v1.235h.895v2.81c0 1.428.578 2.38 2.085 2.38zm4.033 0c.872 0 1.484-.42 2.028-1.066h.045l.125.907h1.36v-6.345h-1.666v4.283c-.43.566-.77.793-1.292.793-.611 0-.883-.34-.883-1.326v-3.75h-1.666v3.965c0 1.587.589 2.539 1.949 2.539zm6.863 0c1.654 0 2.527-.896 2.527-2.006 0-1.178-.929-1.598-1.768-1.915-.668-.249-1.291-.419-1.291-.884 0-.362.271-.612.838-.612.476 0 .918.227 1.371.544l.748-1.008c-.533-.397-1.235-.782-2.164-.782-1.428 0-2.357.805-2.357 1.949 0 1.054.929 1.541 1.733 1.847.669.26 1.326.476 1.326.952 0 .396-.283.668-.918.668-.589 0-1.133-.249-1.699-.691l-.759 1.042c.623.522 1.563.896 2.413.896zm6.267 0c.793 0 1.598-.272 2.221-.703l-.566-1.02c-.454.284-.907.442-1.428.442-.941 0-1.62-.544-1.756-1.586h3.909c.045-.147.079-.453.079-.759 0-1.757-.906-3.037-2.651-3.037-1.519 0-2.958 1.28-2.958 3.343 0 2.084 1.383 3.32 3.15 3.32zm-1.552-3.966c.125-.929.714-1.405 1.382-1.405.816 0 1.201.544 1.201 1.405h-2.583zM233.798 170.692h5.042v-1.349h-1.575v-7.036h-1.235c-.532.329-1.11.544-1.948.702v1.032h1.518v5.302h-1.802v1.349zm8.565.158c1.597 0 2.946-.895 2.946-2.436 0-1.099-.725-1.801-1.677-2.062v-.057c.895-.351 1.405-1.008 1.405-1.914 0-1.439-1.099-2.233-2.72-2.233-.985 0-1.79.397-2.515 1.031l.85 1.02c.498-.453.986-.736 1.586-.748.714.012 1.122.397 1.122 1.054 0 .748-.499 1.281-2.04 1.281v1.201c1.825 0 2.312.509 2.312 1.337 0 .747-.578 1.167-1.428 1.167-.759 0-1.371-.374-1.869-.861l-.782 1.053c.589.669 1.484 1.167 2.81 1.167zm3.771-.158h5.62v-1.405h-1.824c-.385 0-.94.045-1.36.09 1.53-1.495 2.788-3.127 2.788-4.645 0-1.564-1.054-2.584-2.64-2.584-1.145 0-1.892.454-2.663 1.269l.907.907c.419-.465.929-.861 1.541-.861.793 0 1.257.51 1.257 1.359 0 1.292-1.348 2.867-3.626 4.907v.963zm6.831 0h5.042v-1.349h-1.575v-7.036h-1.235c-.532.329-1.11.544-1.948.702v1.032h1.518v5.302h-1.802v1.349z"/>
    </g>
    <circle cx="245.026" cy="97.727" r="27.855" fill="#8F6FD6"/>
    <g clip-path="url(#prefix__clip7)">
        <path fill="#8F6FD6" d="M226.579 81.675H264.009V113.779H226.579z"/>
        <path fill="#fff" d="M234.977 94.682h1.507V91.18c0-.793-.136-1.96-.216-2.753h.046l.668 1.972 1.303 3.523h.963l1.292-3.523.68-1.972h.045c-.079.793-.204 1.96-.204 2.753v3.502h1.53v-8.385h-1.858l-1.394 3.92c-.181.522-.329 1.077-.51 1.62h-.056c-.17-.543-.329-1.098-.51-1.62l-1.428-3.92h-1.858v8.385zm9.251 0h1.655v-6.346h-1.655v6.346zm.839-7.365c.566 0 .986-.385.986-.907 0-.544-.42-.906-.986-.906-.578 0-.997.362-.997.906 0 .522.419.907.997.907zm3.883 7.523c.385 0 .669-.068.861-.147l-.204-1.235c-.113.023-.158.023-.226.023-.159 0-.34-.125-.34-.499V85.64h-1.655v7.263c0 1.178.408 1.937 1.564 1.937zm1.727-.158h1.62v-1.587l.918-1.042 1.541 2.629h1.802l-2.402-3.75 2.198-2.596h-1.813l-2.198 2.743h-.046v-5.44h-1.62v9.043zM233.304 110.733h5.042v-1.348h-1.575v-7.036h-1.235c-.533.328-1.111.544-1.949.702v1.031h1.518v5.303h-1.801v1.348zm8.802.159c1.7 0 2.833-1.496 2.833-4.385s-1.133-4.317-2.833-4.317c-1.711 0-2.844 1.416-2.844 4.317 0 2.889 1.133 4.385 2.844 4.385zm0-1.303c-.725 0-1.269-.725-1.269-3.082 0-2.345.544-3.025 1.269-3.025.714 0 1.258.68 1.258 3.025 0 2.357-.544 3.082-1.258 3.082zm3.534 1.144h5.62v-1.405h-1.824c-.386 0-.941.046-1.36.091 1.53-1.496 2.787-3.127 2.787-4.645 0-1.564-1.054-2.584-2.64-2.584-1.144 0-1.892.453-2.663 1.269l.907.907c.419-.465.929-.861 1.541-.861.793 0 1.258.509 1.258 1.359 0 1.292-1.349 2.867-3.626 4.906v.963zm6.389 0h5.62v-1.405h-1.824c-.386 0-.941.046-1.36.091 1.53-1.496 2.787-3.127 2.787-4.645 0-1.564-1.054-2.584-2.64-2.584-1.144 0-1.892.453-2.663 1.269l.907.907c.419-.465.929-.861 1.541-.861.793 0 1.258.509 1.258 1.359 0 1.292-1.349 2.867-3.626 4.906v.963z"/>
    </g>
    <circle cx="120.861" cy="306.873" r="55.709" fill="#FFB272"/>
    <g clip-path="url(#prefix__clip8)">
        <path fill="#fff" d="M96.345 303.986c1.167 0 2.153-.453 2.72-1.008v-3.785h-2.98v1.371h1.484v1.654c-.238.204-.646.318-1.054.318-1.643 0-2.481-1.099-2.481-2.924 0-1.801.974-2.889 2.368-2.889.76 0 1.235.306 1.643.702l.895-1.065c-.544-.555-1.382-1.076-2.595-1.076-2.232 0-4.022 1.62-4.022 4.385 0 2.799 1.734 4.317 4.022 4.317zm4.1-.159h1.654v-3.784c.363-.918.963-1.246 1.462-1.246.26 0 .442.033.657.101l.294-1.439c-.192-.079-.396-.135-.747-.135-.658 0-1.337.453-1.802 1.28h-.045l-.114-1.122h-1.359v6.345zm7.272.159c.793 0 1.598-.272 2.221-.703l-.567-1.019c-.453.283-.906.442-1.427.442-.941 0-1.621-.544-1.757-1.587h3.909c.046-.147.08-.453.08-.759 0-1.756-.907-3.036-2.652-3.036-1.518 0-2.957 1.28-2.957 3.342 0 2.085 1.382 3.32 3.15 3.32zm-1.552-3.966c.124-.929.714-1.405 1.382-1.405.816 0 1.201.544 1.201 1.405h-2.583zm7.853 3.966c.793 0 1.597-.272 2.22-.703l-.566-1.019c-.453.283-.907.442-1.428.442-.94 0-1.62-.544-1.756-1.587h3.909c.045-.147.079-.453.079-.759 0-1.756-.906-3.036-2.651-3.036-1.518 0-2.957 1.28-2.957 3.342 0 2.085 1.382 3.32 3.15 3.32zm-1.553-3.966c.125-.929.714-1.405 1.383-1.405.815 0 1.201.544 1.201 1.405h-2.584zm5.1 3.807h1.654v-4.362c.476-.465.804-.714 1.326-.714.623 0 .895.351.895 1.326v3.75h1.665v-3.954c0-1.598-.589-2.549-1.96-2.549-.861 0-1.507.453-2.062.997h-.045l-.114-.839h-1.359v6.345zm9.395 0h1.677v-2.98h1.122c1.801 0 3.24-.861 3.24-2.776 0-1.983-1.427-2.628-3.286-2.628h-2.753v8.384zm1.677-4.305v-2.754h.952c1.155 0 1.767.329 1.767 1.303 0 .963-.555 1.451-1.711 1.451h-1.008zm7.927 4.464c.793 0 1.597-.272 2.221-.703l-.567-1.019c-.453.283-.906.442-1.428.442-.94 0-1.62-.544-1.756-1.587h3.909c.046-.147.08-.453.08-.759 0-1.756-.907-3.036-2.652-3.036-1.518 0-2.957 1.28-2.957 3.342 0 2.085 1.382 3.32 3.15 3.32zm-1.552-3.966c.124-.929.713-1.405 1.382-1.405.816 0 1.201.544 1.201 1.405h-2.583zm6.508 3.966c.725 0 1.359-.363 1.915-.839h.034l.124.68h1.36v-3.705c0-1.835-.827-2.798-2.436-2.798-.997 0-1.904.373-2.652.838l.601 1.099c.589-.34 1.156-.6 1.745-.6.782 0 1.054.475 1.076 1.099-2.549.272-3.648.985-3.648 2.345 0 1.076.748 1.881 1.881 1.881zm.544-1.303c-.488 0-.839-.215-.839-.714 0-.566.521-.986 2.062-1.19v1.281c-.396.396-.748.623-1.223.623zm6.116 1.303c1.654 0 2.527-.895 2.527-2.006 0-1.178-.929-1.597-1.768-1.914-.668-.25-1.291-.42-1.291-.884 0-.363.271-.612.838-.612.476 0 .918.227 1.371.544l.748-1.009c-.533-.396-1.235-.781-2.164-.781-1.428 0-2.357.804-2.357 1.948 0 1.054.929 1.541 1.734 1.847.668.261 1.325.476 1.325.952 0 .397-.283.669-.918.669-.589 0-1.133-.25-1.699-.692l-.759 1.043c.623.521 1.563.895 2.413.895zM109.406 319.879h5.042v-1.348h-1.575v-7.037h-1.235c-.533.329-1.11.544-1.949.703v1.031h1.518v5.303h-1.801v1.348zm8.564.159c1.598 0 2.946-.895 2.946-2.436 0-1.099-.725-1.802-1.677-2.062v-.057c.895-.351 1.405-1.009 1.405-1.915 0-1.439-1.099-2.232-2.719-2.232-.986 0-1.79.396-2.515 1.031l.849 1.02c.499-.454.986-.737 1.587-.748.714.011 1.121.396 1.121 1.054 0 .747-.498 1.28-2.039 1.28v1.201c1.824 0 2.311.51 2.311 1.337 0 .748-.578 1.167-1.427 1.167-.759 0-1.371-.374-1.87-.861l-.782 1.054c.59.668 1.485 1.167 2.81 1.167zm5.143-3.603l1.303-2.085c.238-.453.465-.918.668-1.36h.046c-.023.487-.068 1.246-.068 1.734v1.711h-1.949zm4.498 0h-.997v-4.941h-1.994l-3.127 5.077v1.133h3.569v2.175h1.552v-2.175h.997v-1.269zm.962 3.444h5.042v-1.348h-1.575v-7.037h-1.235c-.533.329-1.11.544-1.949.703v1.031h1.518v5.303h-1.801v1.348z"/>
    </g>
    <g filter="url(#prefix__filter0_d)">
        <rect width="343.698" height="186.598" x="125.582" y="141.634" fill="#fff" rx="6.857"/>
    </g>
    <path fill="#C0C7CE" d="M143.521 186.695c.312.096.554.259.725.491.176.231.264.508.264.83 0 .457-.166.817-.498 1.079-.332.256-.803.385-1.411.385-.609 0-1.08-.129-1.412-.385-.332-.262-.498-.622-.498-1.079 0-.327.088-.607.264-.838.177-.231.421-.392.732-.483-.266-.101-.477-.259-.633-.475-.156-.217-.234-.471-.234-.763 0-.432.156-.774.468-1.026.316-.256.754-.385 1.313-.385.558 0 .993.129 1.305.385.317.252.475.594.475 1.026 0 .292-.077.549-.233.77-.156.217-.365.372-.627.468zm-2.09-1.192c0 .312.098.551.294.717.201.166.493.249.876.249.382 0 .671-.083.867-.249.202-.166.302-.405.302-.717 0-.297-.1-.528-.302-.694-.196-.167-.485-.25-.867-.25-.383 0-.675.083-.876.25-.196.166-.294.397-.294.694zm1.17 3.463c.865 0 1.298-.329 1.298-.988s-.433-.989-1.298-.989c-.866 0-1.298.33-1.298.989s.432.988 1.298.988zm4.524.521c-.608 0-1.071-.231-1.388-.694-.317-.463-.476-1.137-.476-2.022 0-.891.159-1.568.476-2.03.317-.463.78-.695 1.388-.695.609 0 1.072.232 1.389.695.317.457.475 1.132.475 2.022 0 .89-.158 1.567-.475 2.03-.317.463-.78.694-1.389.694zm0-.521c.423 0 .735-.178.936-.535.201-.357.302-.913.302-1.668 0-.76-.101-1.313-.302-1.66-.196-.352-.508-.528-.936-.528-.422 0-.734.176-.935.528-.202.352-.302.905-.302 1.66 0 .755.1 1.311.302 1.668.201.357.513.535.935.535zm3.506-.309v.543c0 .212-.035.403-.105.574-.066.176-.181.347-.347.513l-.287-.219c.196-.216.307-.43.332-.641h-.362v-.77h.769zm2.744.83c-.609 0-1.072-.231-1.389-.694-.317-.463-.475-1.137-.475-2.022 0-.891.158-1.568.475-2.03.317-.463.78-.695 1.389-.695.608 0 1.071.232 1.388.695.317.457.476 1.132.476 2.022 0 .89-.159 1.567-.476 2.03-.317.463-.78.694-1.388.694zm0-.521c.422 0 .734-.178.935-.535.202-.357.302-.913.302-1.668 0-.76-.1-1.313-.302-1.66-.196-.352-.508-.528-.935-.528-.423 0-.735.176-.936.528-.201.352-.302.905-.302 1.66 0 .755.101 1.311.302 1.668.201.357.513.535.936.535zm4.524.521c-.608 0-1.071-.231-1.388-.694-.317-.463-.475-1.137-.475-2.022 0-.891.158-1.568.475-2.03.317-.463.78-.695 1.388-.695.609 0 1.072.232 1.389.695.317.457.475 1.132.475 2.022 0 .89-.158 1.567-.475 2.03-.317.463-.78.694-1.389.694zm0-.521c.423 0 .735-.178.936-.535.201-.357.302-.913.302-1.668 0-.76-.101-1.313-.302-1.66-.196-.352-.508-.528-.936-.528-.422 0-.734.176-.935.528-.202.352-.302.905-.302 1.66 0 .755.1 1.311.302 1.668.201.357.513.535.935.535zm4.525.521c-.608 0-1.071-.231-1.388-.694-.317-.463-.476-1.137-.476-2.022 0-.891.159-1.568.476-2.03.317-.463.78-.695 1.388-.695.609 0 1.072.232 1.389.695.317.457.475 1.132.475 2.022 0 .89-.158 1.567-.475 2.03-.317.463-.78.694-1.389.694zm0-.521c.423 0 .735-.178.936-.535.201-.357.302-.913.302-1.668 0-.76-.101-1.313-.302-1.66-.196-.352-.508-.528-.936-.528-.422 0-.734.176-.935.528-.202.352-.302.905-.302 1.66 0 .755.1 1.311.302 1.668.201.357.513.535.935.535zM139.751 160.779v.521h-2.958v-.521h1.17v-4.029l-.936.588-.287-.475 1.396-.883h.446v4.799h1.169zm2.85.581c-.609 0-1.072-.231-1.389-.694-.317-.463-.475-1.137-.475-2.022 0-.891.158-1.567.475-2.03.317-.463.78-.695 1.389-.695s1.071.232 1.388.695c.317.457.476 1.132.476 2.022 0 .891-.159 1.567-.476 2.03-.317.463-.779.694-1.388.694zm0-.52c.422 0 .734-.179.936-.536.201-.357.301-.913.301-1.668 0-.76-.1-1.313-.301-1.66-.197-.352-.509-.528-.936-.528-.423 0-.735.176-.936.528-.201.352-.302.905-.302 1.66 0 .755.101 1.311.302 1.668.201.357.513.536.936.536zm4.525.52c-.609 0-1.072-.231-1.389-.694-.317-.463-.475-1.137-.475-2.022 0-.891.158-1.567.475-2.03.317-.463.78-.695 1.389-.695.608 0 1.071.232 1.388.695.317.457.476 1.132.476 2.022 0 .891-.159 1.567-.476 2.03-.317.463-.78.694-1.388.694zm0-.52c.422 0 .734-.179.935-.536.202-.357.302-.913.302-1.668 0-.76-.1-1.313-.302-1.66-.196-.352-.508-.528-.935-.528-.423 0-.735.176-.936.528-.201.352-.302.905-.302 1.66 0 .755.101 1.311.302 1.668.201.357.513.536.936.536zm3.506-.31v.544c0 .211-.036.402-.106.573-.065.176-.181.347-.347.513l-.287-.219c.196-.216.307-.43.332-.641h-.362v-.77h.77zm2.743.83c-.609 0-1.072-.231-1.389-.694-.317-.463-.475-1.137-.475-2.022 0-.891.158-1.567.475-2.03.317-.463.78-.695 1.389-.695s1.071.232 1.388.695c.317.457.476 1.132.476 2.022 0 .891-.159 1.567-.476 2.03-.317.463-.779.694-1.388.694zm0-.52c.422 0 .734-.179.936-.536.201-.357.301-.913.301-1.668 0-.76-.1-1.313-.301-1.66-.197-.352-.509-.528-.936-.528-.423 0-.735.176-.936.528-.201.352-.302.905-.302 1.66 0 .755.101 1.311.302 1.668.201.357.513.536.936.536zm4.525.52c-.609 0-1.072-.231-1.389-.694-.317-.463-.475-1.137-.475-2.022 0-.891.158-1.567.475-2.03.317-.463.78-.695 1.389-.695.608 0 1.071.232 1.388.695.317.457.476 1.132.476 2.022 0 .891-.159 1.567-.476 2.03-.317.463-.78.694-1.388.694zm0-.52c.422 0 .734-.179.935-.536.202-.357.302-.913.302-1.668 0-.76-.1-1.313-.302-1.66-.196-.352-.508-.528-.935-.528-.423 0-.735.176-.936.528-.201.352-.302.905-.302 1.66 0 .755.101 1.311.302 1.668.201.357.513.536.936.536zm4.524.52c-.608 0-1.071-.231-1.388-.694-.317-.463-.475-1.137-.475-2.022 0-.891.158-1.567.475-2.03.317-.463.78-.695 1.388-.695.609 0 1.072.232 1.389.695.317.457.475 1.132.475 2.022 0 .891-.158 1.567-.475 2.03-.317.463-.78.694-1.389.694zm0-.52c.423 0 .735-.179.936-.536.201-.357.302-.913.302-1.668 0-.76-.101-1.313-.302-1.66-.196-.352-.508-.528-.936-.528-.422 0-.734.176-.935.528-.201.352-.302.905-.302 1.66 0 .755.101 1.311.302 1.668.201.357.513.536.935.536zM142.834 214.211c.322 0 .609.07.861.211.251.141.447.34.588.596.141.257.212.551.212.883 0 .327-.073.621-.219.883-.146.262-.35.465-.612.611-.261.146-.555.219-.882.219-.644 0-1.142-.224-1.495-.672-.347-.447-.52-1.086-.52-1.916 0-.599.08-1.112.241-1.54.166-.427.403-.752.709-.973.307-.227.675-.34 1.102-.34.307 0 .606.058.898.174.292.11.549.271.77.483l-.234.475c-.252-.211-.493-.365-.724-.46-.227-.101-.458-.151-.695-.151-.457 0-.815.204-1.071.611-.252.403-.378.974-.378 1.713v.113c.116-.281.302-.505.559-.671.256-.166.553-.249.89-.249zm-.083 2.882c.342 0 .617-.108.823-.324.206-.216.309-.503.309-.86 0-.353-.105-.637-.317-.853-.206-.216-.48-.325-.822-.325-.347 0-.632.111-.853.332-.216.217-.324.499-.324.846 0 .352.108.639.324.86.221.216.508.324.86.324zm4.374.521c-.608 0-1.071-.231-1.388-.694-.317-.463-.476-1.137-.476-2.023 0-.89.159-1.567.476-2.029.317-.463.78-.695 1.388-.695.609 0 1.072.232 1.389.695.317.457.475 1.131.475 2.022 0 .89-.158 1.567-.475 2.03-.317.463-.78.694-1.389.694zm0-.521c.423 0 .735-.178.936-.535.201-.358.302-.913.302-1.668 0-.76-.101-1.313-.302-1.66-.196-.352-.508-.529-.936-.529-.422 0-.734.177-.935.529-.202.352-.302.905-.302 1.66 0 .755.1 1.31.302 1.668.201.357.513.535.935.535zm3.506-.309v.543c0 .212-.035.403-.105.574-.066.176-.181.347-.347.513l-.287-.219c.196-.216.307-.43.332-.641h-.362v-.77h.769zm2.744.83c-.609 0-1.072-.231-1.389-.694-.317-.463-.475-1.137-.475-2.023 0-.89.158-1.567.475-2.029.317-.463.78-.695 1.389-.695.608 0 1.071.232 1.388.695.317.457.476 1.131.476 2.022 0 .89-.159 1.567-.476 2.03-.317.463-.78.694-1.388.694zm0-.521c.422 0 .734-.178.935-.535.202-.358.302-.913.302-1.668 0-.76-.1-1.313-.302-1.66-.196-.352-.508-.529-.935-.529-.423 0-.735.177-.936.529-.201.352-.302.905-.302 1.66 0 .755.101 1.31.302 1.668.201.357.513.535.936.535zm4.524.521c-.608 0-1.071-.231-1.388-.694-.317-.463-.475-1.137-.475-2.023 0-.89.158-1.567.475-2.029.317-.463.78-.695 1.388-.695.609 0 1.072.232 1.389.695.317.457.475 1.131.475 2.022 0 .89-.158 1.567-.475 2.03-.317.463-.78.694-1.389.694zm0-.521c.423 0 .735-.178.936-.535.201-.358.302-.913.302-1.668 0-.76-.101-1.313-.302-1.66-.196-.352-.508-.529-.936-.529-.422 0-.734.177-.935.529-.202.352-.302.905-.302 1.66 0 .755.1 1.31.302 1.668.201.357.513.535.935.535zm4.525.521c-.608 0-1.071-.231-1.388-.694-.317-.463-.476-1.137-.476-2.023 0-.89.159-1.567.476-2.029.317-.463.78-.695 1.388-.695.609 0 1.072.232 1.389.695.317.457.475 1.131.475 2.022 0 .89-.158 1.567-.475 2.03-.317.463-.78.694-1.389.694zm0-.521c.423 0 .735-.178.936-.535.201-.358.302-.913.302-1.668 0-.76-.101-1.313-.302-1.66-.196-.352-.508-.529-.936-.529-.422 0-.734.177-.935.529-.202.352-.302.905-.302 1.66 0 .755.1 1.31.302 1.668.201.357.513.535.935.535zM144.593 244.526h-.8v1.155h-.611v-1.155h-2.46v-.468l2.565-3.697h.506v3.652h.8v.513zm-1.411-.513v-2.619l-1.819 2.619h1.819zm3.943 1.728c-.608 0-1.071-.231-1.388-.694-.317-.463-.476-1.137-.476-2.023 0-.89.159-1.567.476-2.029.317-.463.78-.695 1.388-.695.609 0 1.072.232 1.389.695.317.457.475 1.131.475 2.022 0 .89-.158 1.567-.475 2.03-.317.463-.78.694-1.389.694zm0-.521c.423 0 .735-.178.936-.535.201-.358.302-.913.302-1.668 0-.76-.101-1.313-.302-1.66-.196-.352-.508-.528-.936-.528-.422 0-.734.176-.935.528-.202.352-.302.905-.302 1.66 0 .755.1 1.31.302 1.668.201.357.513.535.935.535zm3.506-.309v.543c0 .212-.035.403-.105.574-.066.176-.181.347-.347.513l-.287-.219c.196-.216.307-.43.332-.641h-.362v-.77h.769zm2.744.83c-.609 0-1.072-.231-1.389-.694-.317-.463-.475-1.137-.475-2.023 0-.89.158-1.567.475-2.029.317-.463.78-.695 1.389-.695.608 0 1.071.232 1.388.695.317.457.476 1.131.476 2.022 0 .89-.159 1.567-.476 2.03-.317.463-.78.694-1.388.694zm0-.521c.422 0 .734-.178.935-.535.202-.358.302-.913.302-1.668 0-.76-.1-1.313-.302-1.66-.196-.352-.508-.528-.935-.528-.423 0-.735.176-.936.528-.201.352-.302.905-.302 1.66 0 .755.101 1.31.302 1.668.201.357.513.535.936.535zm4.524.521c-.608 0-1.071-.231-1.388-.694-.317-.463-.475-1.137-.475-2.023 0-.89.158-1.567.475-2.029.317-.463.78-.695 1.388-.695.609 0 1.072.232 1.389.695.317.457.475 1.131.475 2.022 0 .89-.158 1.567-.475 2.03-.317.463-.78.694-1.389.694zm0-.521c.423 0 .735-.178.936-.535.201-.358.302-.913.302-1.668 0-.76-.101-1.313-.302-1.66-.196-.352-.508-.528-.936-.528-.422 0-.734.176-.935.528-.202.352-.302.905-.302 1.66 0 .755.1 1.31.302 1.668.201.357.513.535.935.535zm4.525.521c-.608 0-1.071-.231-1.388-.694-.317-.463-.476-1.137-.476-2.023 0-.89.159-1.567.476-2.029.317-.463.78-.695 1.388-.695.609 0 1.072.232 1.389.695.317.457.475 1.131.475 2.022 0 .89-.158 1.567-.475 2.03-.317.463-.78.694-1.389.694zm0-.521c.423 0 .735-.178.936-.535.201-.358.302-.913.302-1.668 0-.76-.101-1.313-.302-1.66-.196-.352-.508-.528-.936-.528-.422 0-.734.176-.935.528-.202.352-.302.905-.302 1.66 0 .755.1 1.31.302 1.668.201.357.513.535.935.535zM144.404 273.287v.521h-3.426v-.468l1.864-2.053c.252-.281.433-.533.543-.754.116-.227.174-.453.174-.679 0-.292-.086-.516-.257-.672-.171-.156-.412-.234-.724-.234-.513 0-1.016.204-1.509.611l-.234-.475c.211-.201.475-.36.792-.476.322-.12.644-.181.966-.181.488 0 .873.126 1.155.378.286.251.43.591.43 1.018 0 .307-.071.602-.212.883-.135.282-.362.596-.679.944l-1.509 1.637h2.626zm2.721.581c-.608 0-1.071-.231-1.388-.694-.317-.463-.476-1.137-.476-2.022 0-.891.159-1.568.476-2.03.317-.463.78-.695 1.388-.695.609 0 1.072.232 1.389.695.317.457.475 1.132.475 2.022 0 .89-.158 1.567-.475 2.03-.317.463-.78.694-1.389.694zm0-.521c.423 0 .735-.178.936-.535.201-.358.302-.913.302-1.668 0-.76-.101-1.313-.302-1.66-.196-.352-.508-.528-.936-.528-.422 0-.734.176-.935.528-.202.352-.302.905-.302 1.66 0 .755.1 1.31.302 1.668.201.357.513.535.935.535zm3.506-.309v.543c0 .212-.035.403-.105.574-.066.176-.181.347-.347.513l-.287-.219c.196-.216.307-.43.332-.641h-.362v-.77h.769zm2.744.83c-.609 0-1.072-.231-1.389-.694-.317-.463-.475-1.137-.475-2.022 0-.891.158-1.568.475-2.03.317-.463.78-.695 1.389-.695.608 0 1.071.232 1.388.695.317.457.476 1.132.476 2.022 0 .89-.159 1.567-.476 2.03-.317.463-.78.694-1.388.694zm0-.521c.422 0 .734-.178.935-.535.202-.358.302-.913.302-1.668 0-.76-.1-1.313-.302-1.66-.196-.352-.508-.528-.935-.528-.423 0-.735.176-.936.528-.201.352-.302.905-.302 1.66 0 .755.101 1.31.302 1.668.201.357.513.535.936.535zm4.524.521c-.608 0-1.071-.231-1.388-.694-.317-.463-.475-1.137-.475-2.022 0-.891.158-1.568.475-2.03.317-.463.78-.695 1.388-.695.609 0 1.072.232 1.389.695.317.457.475 1.132.475 2.022 0 .89-.158 1.567-.475 2.03-.317.463-.78.694-1.389.694zm0-.521c.423 0 .735-.178.936-.535.201-.358.302-.913.302-1.668 0-.76-.101-1.313-.302-1.66-.196-.352-.508-.528-.936-.528-.422 0-.734.176-.935.528-.202.352-.302.905-.302 1.66 0 .755.1 1.31.302 1.668.201.357.513.535.935.535zm4.525.521c-.608 0-1.071-.231-1.388-.694-.317-.463-.476-1.137-.476-2.022 0-.891.159-1.568.476-2.03.317-.463.78-.695 1.388-.695.609 0 1.072.232 1.389.695.317.457.475 1.132.475 2.022 0 .89-.158 1.567-.475 2.03-.317.463-.78.694-1.389.694zm0-.521c.423 0 .735-.178.936-.535.201-.358.302-.913.302-1.668 0-.76-.101-1.313-.302-1.66-.196-.352-.508-.528-.936-.528-.422 0-.734.176-.935.528-.202.352-.302.905-.302 1.66 0 .755.1 1.31.302 1.668.201.357.513.535.935.535zM147.125 301.995c-.608 0-1.071-.231-1.388-.694-.317-.463-.476-1.137-.476-2.023 0-.89.159-1.567.476-2.03.317-.462.78-.694 1.388-.694.609 0 1.072.232 1.389.694.317.458.475 1.132.475 2.023 0 .89-.158 1.567-.475 2.03-.317.463-.78.694-1.389.694zm0-.521c.423 0 .735-.178.936-.536.201-.357.302-.913.302-1.667 0-.76-.101-1.313-.302-1.66-.196-.353-.508-.529-.936-.529-.422 0-.734.176-.935.529-.202.352-.302.905-.302 1.66 0 .754.1 1.31.302 1.667.201.358.513.536.935.536zm3.506-.309v.543c0 .211-.035.403-.105.574-.066.176-.181.347-.347.513l-.287-.219c.196-.216.307-.43.332-.641h-.362v-.77h.769zm2.744.83c-.609 0-1.072-.231-1.389-.694-.317-.463-.475-1.137-.475-2.023 0-.89.158-1.567.475-2.03.317-.462.78-.694 1.389-.694.608 0 1.071.232 1.388.694.317.458.476 1.132.476 2.023 0 .89-.159 1.567-.476 2.03-.317.463-.78.694-1.388.694zm0-.521c.422 0 .734-.178.935-.536.202-.357.302-.913.302-1.667 0-.76-.1-1.313-.302-1.66-.196-.353-.508-.529-.935-.529-.423 0-.735.176-.936.529-.201.352-.302.905-.302 1.66 0 .754.101 1.31.302 1.667.201.358.513.536.936.536zm4.524.521c-.608 0-1.071-.231-1.388-.694-.317-.463-.475-1.137-.475-2.023 0-.89.158-1.567.475-2.03.317-.462.78-.694 1.388-.694.609 0 1.072.232 1.389.694.317.458.475 1.132.475 2.023 0 .89-.158 1.567-.475 2.03-.317.463-.78.694-1.389.694zm0-.521c.423 0 .735-.178.936-.536.201-.357.302-.913.302-1.667 0-.76-.101-1.313-.302-1.66-.196-.353-.508-.529-.936-.529-.422 0-.734.176-.935.529-.202.352-.302.905-.302 1.66 0 .754.1 1.31.302 1.667.201.358.513.536.935.536zm4.525.521c-.608 0-1.071-.231-1.388-.694-.317-.463-.476-1.137-.476-2.023 0-.89.159-1.567.476-2.03.317-.462.78-.694 1.388-.694.609 0 1.072.232 1.389.694.317.458.475 1.132.475 2.023 0 .89-.158 1.567-.475 2.03-.317.463-.78.694-1.389.694zm0-.521c.423 0 .735-.178.936-.536.201-.357.302-.913.302-1.667 0-.76-.101-1.313-.302-1.66-.196-.353-.508-.529-.936-.529-.422 0-.734.176-.936.529-.201.352-.301.905-.301 1.66 0 .754.1 1.31.301 1.667.202.358.514.536.936.536zM189.39 312.842c0 .397-.141.732-.422 1.003-.282.267-.66.428-1.132.483v.823h-.529v-.815c-.342-.02-.659-.086-.95-.196-.292-.116-.549-.277-.77-.483l.234-.476c.261.222.525.383.792.483.272.101.569.151.891.151.397 0 .706-.083.928-.249.221-.166.332-.402.332-.709 0-.181-.058-.327-.174-.438-.11-.116-.254-.204-.43-.264-.171-.065-.405-.133-.702-.204-.382-.095-.691-.191-.928-.286-.231-.096-.43-.242-.596-.438-.166-.196-.249-.46-.249-.792 0-.272.068-.516.204-.732.135-.222.324-.4.566-.536.246-.136.528-.219.845-.249v-.823h.528v.823c.287.025.561.095.823.211.266.116.493.264.679.445l-.234.476c-.443-.413-.956-.619-1.54-.619-.382 0-.684.088-.905.264-.222.171-.332.41-.332.717 0 .211.06.38.181.505.126.126.279.224.46.295.181.065.43.138.747.219.368.095.662.186.883.271.222.086.41.222.566.408.156.181.234.425.234.732zm2.631 1.501c-.609 0-1.072-.231-1.389-.694-.317-.463-.475-1.137-.475-2.022 0-.891.158-1.567.475-2.03.317-.463.78-.694 1.389-.694s1.071.231 1.388.694c.317.458.476 1.132.476 2.022 0 .891-.159 1.567-.476 2.03-.317.463-.779.694-1.388.694zm0-.52c.422 0 .734-.179.936-.536.201-.357.301-.913.301-1.668 0-.759-.1-1.313-.301-1.66-.197-.352-.509-.528-.936-.528-.423 0-.735.176-.936.528-.201.352-.302.906-.302 1.66 0 .755.101 1.311.302 1.668.201.357.513.536.936.536zm6.275.46l-2.739-2.528v2.528h-.619v-5.32h.619v2.445l2.611-2.445h.785l-2.777 2.588 2.92 2.732h-.8zM232.201 312.842c0 .397-.141.732-.423 1.003-.281.267-.659.428-1.132.483v.823h-.528v-.815c-.342-.02-.659-.086-.951-.196-.292-.116-.548-.277-.769-.483l.233-.476c.262.222.526.383.793.483.271.101.568.151.89.151.398 0 .707-.083.928-.249.222-.166.332-.402.332-.709 0-.181-.057-.327-.173-.438-.111-.116-.254-.204-.43-.264-.171-.065-.405-.133-.702-.204-.382-.095-.692-.191-.928-.286-.232-.096-.43-.242-.596-.438-.166-.196-.249-.46-.249-.792 0-.272.068-.516.203-.732.136-.222.325-.4.566-.536.247-.136.529-.219.846-.249v-.823h.528v.823c.287.025.561.095.822.211.267.116.493.264.679.445l-.233.476c-.443-.413-.956-.619-1.54-.619-.382 0-.684.088-.905.264-.222.171-.332.41-.332.717 0 .211.06.38.181.505.125.126.279.224.46.295.181.065.43.138.747.219.367.095.662.186.883.271.221.086.41.222.566.408.156.181.234.425.234.732zm4.434.92v.521h-3.426v-.468l1.864-2.052c.252-.282.433-.534.543-.755.116-.226.174-.453.174-.679 0-.292-.086-.516-.257-.672-.171-.156-.412-.234-.724-.234-.513 0-1.016.204-1.509.612l-.234-.476c.211-.201.475-.36.792-.475.322-.121.644-.181.966-.181.488 0 .873.125 1.155.377.286.251.43.591.43 1.019 0 .307-.071.601-.212.883-.135.281-.362.596-.679.943l-1.509 1.637h2.626zm2.721.581c-.608 0-1.071-.231-1.388-.694-.317-.463-.476-1.137-.476-2.022 0-.891.159-1.567.476-2.03.317-.463.78-.694 1.388-.694.609 0 1.072.231 1.389.694.317.458.475 1.132.475 2.022 0 .891-.158 1.567-.475 2.03-.317.463-.78.694-1.389.694zm0-.52c.423 0 .735-.179.936-.536.201-.357.302-.913.302-1.668 0-.759-.101-1.313-.302-1.66-.196-.352-.508-.528-.936-.528-.422 0-.734.176-.935.528-.202.352-.302.906-.302 1.66 0 .755.1 1.311.302 1.668.201.357.513.536.935.536zm4.525.52c-.609 0-1.071-.231-1.388-.694-.317-.463-.476-1.137-.476-2.022 0-.891.159-1.567.476-2.03.317-.463.779-.694 1.388-.694.609 0 1.072.231 1.389.694.317.458.475 1.132.475 2.022 0 .891-.158 1.567-.475 2.03-.317.463-.78.694-1.389.694zm0-.52c.423 0 .735-.179.936-.536.201-.357.302-.913.302-1.668 0-.759-.101-1.313-.302-1.66-.196-.352-.508-.528-.936-.528-.422 0-.734.176-.936.528-.201.352-.301.906-.301 1.66 0 .755.1 1.311.301 1.668.202.357.514.536.936.536zm6.276.46l-2.74-2.528v2.528h-.618v-5.32h.618v2.445l2.611-2.445h.785l-2.777 2.588 2.921 2.732h-.8zM279.536 312.842c0 .397-.141.732-.422 1.003-.282.267-.659.428-1.132.483v.823h-.528v-.815c-.343-.02-.659-.086-.951-.196-.292-.116-.549-.277-.77-.483l.234-.476c.262.222.526.383.792.483.272.101.569.151.891.151.397 0 .707-.083.928-.249.221-.166.332-.402.332-.709 0-.181-.058-.327-.174-.438-.11-.116-.254-.204-.43-.264-.171-.065-.405-.133-.701-.204-.383-.095-.692-.191-.929-.286-.231-.096-.43-.242-.596-.438-.166-.196-.249-.46-.249-.792 0-.272.068-.516.204-.732.136-.222.324-.4.566-.536.246-.136.528-.219.845-.249v-.823h.528v.823c.287.025.561.095.823.211.266.116.493.264.679.445l-.234.476c-.443-.413-.956-.619-1.539-.619-.383 0-.685.088-.906.264-.221.171-.332.41-.332.717 0 .211.06.38.181.505.126.126.279.224.46.295.182.065.431.138.748.219.367.095.661.186.882.271.222.086.41.222.566.408.156.181.234.425.234.732zm4.623.287h-.8v1.154h-.611v-1.154h-2.46v-.468l2.566-3.698h.505v3.652h.8v.514zm-1.411-.514v-2.618l-1.819 2.618h1.819zm3.944 1.728c-.609 0-1.072-.231-1.389-.694-.317-.463-.475-1.137-.475-2.022 0-.891.158-1.567.475-2.03.317-.463.78-.694 1.389-.694s1.071.231 1.388.694c.317.458.476 1.132.476 2.022 0 .891-.159 1.567-.476 2.03-.317.463-.779.694-1.388.694zm0-.52c.422 0 .734-.179.936-.536.201-.357.301-.913.301-1.668 0-.759-.1-1.313-.301-1.66-.197-.352-.509-.528-.936-.528-.423 0-.735.176-.936.528-.201.352-.302.906-.302 1.66 0 .755.101 1.311.302 1.668.201.357.513.536.936.536zm4.525.52c-.609 0-1.072-.231-1.389-.694-.317-.463-.475-1.137-.475-2.022 0-.891.158-1.567.475-2.03.317-.463.78-.694 1.389-.694.608 0 1.071.231 1.388.694.317.458.476 1.132.476 2.022 0 .891-.159 1.567-.476 2.03-.317.463-.78.694-1.388.694zm0-.52c.422 0 .734-.179.935-.536.202-.357.302-.913.302-1.668 0-.759-.1-1.313-.302-1.66-.196-.352-.508-.528-.935-.528-.423 0-.735.176-.936.528-.201.352-.302.906-.302 1.66 0 .755.101 1.311.302 1.668.201.357.513.536.936.536zm6.275.46l-2.739-2.528v2.528h-.619v-5.32h.619v2.445l2.611-2.445h.785l-2.777 2.588 2.92 2.732h-.8zM326.876 312.842c0 .397-.141.732-.423 1.003-.282.267-.659.428-1.132.483v.823h-.528v-.815c-.342-.02-.659-.086-.951-.196-.292-.116-.548-.277-.77-.483l.234-.476c.262.222.526.383.793.483.271.101.568.151.89.151.397 0 .707-.083.928-.249.222-.166.332-.402.332-.709 0-.181-.058-.327-.173-.438-.111-.116-.254-.204-.43-.264-.172-.065-.405-.133-.702-.204-.383-.095-.692-.191-.928-.286-.232-.096-.431-.242-.597-.438-.166-.196-.249-.46-.249-.792 0-.272.068-.516.204-.732.136-.222.325-.4.566-.536.247-.136.528-.219.845-.249v-.823h.528v.823c.287.025.561.095.823.211.267.116.493.264.679.445l-.234.476c-.442-.413-.956-.619-1.539-.619-.383 0-.684.088-.906.264-.221.171-.332.41-.332.717 0 .211.061.38.181.505.126.126.28.224.461.295.181.065.43.138.747.219.367.095.661.186.883.271.221.086.41.222.566.408.156.181.234.425.234.732zm2.857-1.902c.322 0 .608.071.86.211.251.141.448.34.589.597.14.256.211.55.211.882 0 .327-.073.622-.219.883-.146.262-.35.466-.611.612-.262.146-.556.218-.883.218-.644 0-1.142-.223-1.494-.671-.347-.448-.521-1.087-.521-1.917 0-.599.08-1.112.241-1.539.166-.428.403-.752.71-.974.307-.226.674-.339 1.102-.339.306 0 .606.057.898.173.291.111.548.272.769.483l-.234.476c-.251-.212-.493-.365-.724-.461-.226-.1-.458-.151-.694-.151-.458 0-.815.204-1.072.612-.251.402-.377.973-.377 1.713v.113c.115-.282.302-.506.558-.672.257-.166.554-.249.891-.249zm-.083 2.883c.342 0 .616-.108.822-.325.206-.216.31-.503.31-.86 0-.352-.106-.636-.317-.853-.207-.216-.481-.324-.823-.324-.347 0-.631.11-.853.332-.216.216-.324.498-.324.845 0 .352.108.639.324.86.222.217.508.325.861.325zm4.374.52c-.609 0-1.072-.231-1.389-.694-.317-.463-.475-1.137-.475-2.022 0-.891.158-1.567.475-2.03.317-.463.78-.694 1.389-.694.608 0 1.071.231 1.388.694.317.458.476 1.132.476 2.022 0 .891-.159 1.567-.476 2.03-.317.463-.78.694-1.388.694zm0-.52c.422 0 .734-.179.935-.536.202-.357.302-.913.302-1.668 0-.759-.1-1.313-.302-1.66-.196-.352-.508-.528-.935-.528-.423 0-.735.176-.936.528-.201.352-.302.906-.302 1.66 0 .755.101 1.311.302 1.668.201.357.513.536.936.536zm4.524.52c-.608 0-1.071-.231-1.388-.694-.317-.463-.475-1.137-.475-2.022 0-.891.158-1.567.475-2.03.317-.463.78-.694 1.388-.694.609 0 1.072.231 1.389.694.317.458.475 1.132.475 2.022 0 .891-.158 1.567-.475 2.03-.317.463-.78.694-1.389.694zm0-.52c.423 0 .735-.179.936-.536.201-.357.302-.913.302-1.668 0-.759-.101-1.313-.302-1.66-.196-.352-.508-.528-.936-.528-.422 0-.734.176-.935.528-.201.352-.302.906-.302 1.66 0 .755.101 1.311.302 1.668.201.357.513.536.935.536zm6.276.46l-2.739-2.528v2.528h-.619v-5.32h.619v2.445l2.611-2.445h.785l-2.777 2.588 2.92 2.732h-.8zM374.208 312.842c0 .397-.141.732-.423 1.003-.282.267-.659.428-1.132.483v.823h-.528v-.815c-.342-.02-.659-.086-.951-.196-.292-.116-.548-.277-.77-.483l.234-.476c.262.222.526.383.793.483.271.101.568.151.89.151.397 0 .707-.083.928-.249.222-.166.332-.402.332-.709 0-.181-.058-.327-.173-.438-.111-.116-.254-.204-.43-.264-.171-.065-.405-.133-.702-.204-.383-.095-.692-.191-.928-.286-.232-.096-.431-.242-.597-.438-.166-.196-.249-.46-.249-.792 0-.272.068-.516.204-.732.136-.222.325-.4.566-.536.247-.136.528-.219.845-.249v-.823h.529v.823c.286.025.56.095.822.211.267.116.493.264.679.445l-.234.476c-.442-.413-.956-.619-1.539-.619-.382 0-.684.088-.906.264-.221.171-.332.41-.332.717 0 .211.061.38.181.505.126.126.28.224.461.295.181.065.43.138.747.219.367.095.661.186.883.271.221.086.41.222.566.408.156.181.234.425.234.732zm3.551-1.291c.312.096.553.259.724.491.176.231.265.508.265.83 0 .458-.166.817-.499 1.079-.332.257-.802.385-1.411.385-.608 0-1.079-.128-1.411-.385-.332-.262-.498-.621-.498-1.079 0-.327.088-.606.264-.838.176-.231.42-.392.732-.483-.266-.1-.478-.259-.634-.475-.156-.216-.234-.47-.234-.762 0-.433.156-.775.468-1.027.317-.256.755-.384 1.313-.384.559 0 .994.128 1.306.384.317.252.475.594.475 1.027 0 .292-.078.548-.234.769-.156.217-.364.373-.626.468zm-2.09-1.192c0 .312.098.551.294.717.201.166.493.249.875.249.383 0 .672-.083.868-.249.201-.166.302-.405.302-.717 0-.297-.101-.528-.302-.694-.196-.166-.485-.249-.868-.249-.382 0-.674.083-.875.249-.196.166-.294.397-.294.694zm1.169 3.464c.866 0 1.298-.33 1.298-.989s-.432-.988-1.298-.988c-.865 0-1.298.329-1.298.988s.433.989 1.298.989zm4.525.52c-.609 0-1.071-.231-1.388-.694-.317-.463-.476-1.137-.476-2.022 0-.891.159-1.567.476-2.03.317-.463.779-.694 1.388-.694.609 0 1.072.231 1.389.694.317.458.475 1.132.475 2.022 0 .891-.158 1.567-.475 2.03-.317.463-.78.694-1.389.694zm0-.52c.423 0 .735-.179.936-.536.201-.357.302-.913.302-1.668 0-.759-.101-1.313-.302-1.66-.196-.352-.508-.528-.936-.528-.422 0-.734.176-.936.528-.201.352-.301.906-.301 1.66 0 .755.1 1.311.301 1.668.202.357.514.536.936.536zm4.525.52c-.609 0-1.072-.231-1.389-.694-.317-.463-.475-1.137-.475-2.022 0-.891.158-1.567.475-2.03.317-.463.78-.694 1.389-.694s1.072.231 1.388.694c.317.458.476 1.132.476 2.022 0 .891-.159 1.567-.476 2.03-.316.463-.779.694-1.388.694zm0-.52c.423 0 .734-.179.936-.536.201-.357.302-.913.302-1.668 0-.759-.101-1.313-.302-1.66-.197-.352-.508-.528-.936-.528-.423 0-.735.176-.936.528-.201.352-.302.906-.302 1.66 0 .755.101 1.311.302 1.668.201.357.513.536.936.536zm6.275.46l-2.739-2.528v2.528h-.619v-5.32h.619v2.445l2.611-2.445h.785l-2.777 2.588 2.92 2.732h-.8zM419.281 312.842c0 .397-.141.732-.423 1.003-.281.267-.659.428-1.132.483v.823h-.528v-.815c-.342-.02-.659-.086-.951-.196-.291-.116-.548-.277-.769-.483l.234-.476c.261.222.525.383.792.483.272.101.568.151.89.151.398 0 .707-.083.929-.249.221-.166.332-.402.332-.709 0-.181-.058-.327-.174-.438-.111-.116-.254-.204-.43-.264-.171-.065-.405-.133-.702-.204-.382-.095-.692-.191-.928-.286-.231-.096-.43-.242-.596-.438-.166-.196-.249-.46-.249-.792 0-.272.068-.516.204-.732.135-.222.324-.4.565-.536.247-.136.529-.219.846-.249v-.823h.528v.823c.287.025.561.095.822.211.267.116.493.264.68.445l-.234.476c-.443-.413-.956-.619-1.54-.619-.382 0-.684.088-.905.264-.222.171-.332.41-.332.717 0 .211.06.38.181.505.126.126.279.224.46.295.181.065.43.138.747.219.367.095.662.186.883.271.221.086.41.222.566.408.156.181.234.425.234.732zm4.306.92v.521h-2.958v-.521h1.169v-4.029l-.935.588-.287-.475 1.396-.883h.445v4.799h1.17zm2.849.581c-.608 0-1.071-.231-1.388-.694-.317-.463-.475-1.137-.475-2.022 0-.891.158-1.567.475-2.03.317-.463.78-.694 1.388-.694.609 0 1.072.231 1.389.694.317.458.475 1.132.475 2.022 0 .891-.158 1.567-.475 2.03-.317.463-.78.694-1.389.694zm0-.52c.423 0 .735-.179.936-.536.201-.357.302-.913.302-1.668 0-.759-.101-1.313-.302-1.66-.196-.352-.508-.528-.936-.528-.422 0-.734.176-.935.528-.201.352-.302.906-.302 1.66 0 .755.101 1.311.302 1.668.201.357.513.536.935.536zm4.525.52c-.608 0-1.071-.231-1.388-.694-.317-.463-.476-1.137-.476-2.022 0-.891.159-1.567.476-2.03.317-.463.78-.694 1.388-.694.609 0 1.072.231 1.389.694.317.458.475 1.132.475 2.022 0 .891-.158 1.567-.475 2.03-.317.463-.78.694-1.389.694zm0-.52c.423 0 .735-.179.936-.536.201-.357.302-.913.302-1.668 0-.759-.101-1.313-.302-1.66-.196-.352-.508-.528-.936-.528-.422 0-.734.176-.935.528-.202.352-.302.906-.302 1.66 0 .755.1 1.311.302 1.668.201.357.513.536.935.536zm4.525.52c-.609 0-1.071-.231-1.388-.694-.317-.463-.476-1.137-.476-2.022 0-.891.159-1.567.476-2.03.317-.463.779-.694 1.388-.694.609 0 1.072.231 1.389.694.317.458.475 1.132.475 2.022 0 .891-.158 1.567-.475 2.03-.317.463-.78.694-1.389.694zm0-.52c.423 0 .735-.179.936-.536.201-.357.302-.913.302-1.668 0-.759-.101-1.313-.302-1.66-.196-.352-.508-.528-.936-.528-.422 0-.734.176-.936.528-.201.352-.301.906-.301 1.66 0 .755.1 1.311.301 1.668.202.357.514.536.936.536zm6.276.46l-2.74-2.528v2.528h-.618v-5.32h.618v2.445l2.611-2.445h.785l-2.777 2.588 2.921 2.732h-.8z"/>
    <path stroke="#ECF0F4" stroke-width=".686" d="M451.443 299.076L171.546 299.076"/>
    <path stroke="#ECF0F4" stroke-dasharray="2.74 2.74" stroke-linecap="round" stroke-width=".686" d="M451.1 186.568L171.889 186.568M451.1 158.441L171.889 158.441M451.1 214.695L171.889 214.695M451.1 242.822L171.889 242.822M451.1 270.949L171.889 270.949"/>
    <path stroke="#FC7D58" stroke-width=".686" d="M173.05 221.377l33.325 10.068 33.325-7.704 33.325-53.922 33.324 17.008 33.325 7.856 39.555 23.669 27.095-46.398 33.324 35.695"/>
    <path fill="#FC7D58" stroke="#fff" stroke-width="1.371" d="M173.05 219.261c1.177 0 2.191.915 2.191 2.116s-1.014 2.116-2.191 2.116c-1.176 0-2.191-.915-2.191-2.116s1.015-2.116 2.191-2.116zM206.375 229.329c1.177 0 2.191.915 2.191 2.116s-1.014 2.116-2.191 2.116c-1.176 0-2.19-.915-2.19-2.116s1.014-2.116 2.19-2.116zM239.7 221.625c1.176 0 2.19.915 2.19 2.117 0 1.201-1.014 2.116-2.19 2.116-1.177 0-2.191-.915-2.191-2.116 0-1.202 1.014-2.117 2.191-2.117zM273.025 167.703c1.176 0 2.19.915 2.19 2.116s-1.014 2.116-2.19 2.116c-1.177 0-2.191-.915-2.191-2.116s1.014-2.116 2.191-2.116zM306.349 184.711c1.177 0 2.191.915 2.191 2.116s-1.014 2.116-2.191 2.116c-1.177 0-2.191-.915-2.191-2.116s1.014-2.116 2.191-2.116zM339.674 192.566c1.177 0 2.191.915 2.191 2.117 0 1.201-1.014 2.116-2.191 2.116-1.176 0-2.191-.915-2.191-2.116 0-1.202 1.015-2.117 2.191-2.117zM379.302 216.507c1.176 0 2.191.915 2.191 2.116s-1.015 2.116-2.191 2.116c-1.177 0-2.191-.915-2.191-2.116s1.014-2.116 2.191-2.116zM406.324 169.838c1.176 0 2.19.915 2.19 2.116s-1.014 2.116-2.19 2.116c-1.177 0-2.191-.915-2.191-2.116s1.014-2.116 2.191-2.116zM439.648 205.532c1.177 0 2.191.915 2.191 2.116 0 1.202-1.014 2.117-2.191 2.117-1.177 0-2.191-.915-2.191-2.117 0-1.201 1.014-2.116 2.191-2.116z"/>
    <path stroke="#38C976" stroke-width=".686" d="M181.809 250.009l29.81 7.475 29.81-16.078 29.81-4.795 29.809 17.136 29.81-21.719 29.81-10.718 29.809 14.314 29.81-17.206 29.81 61.842"/>
    <path fill="#38C976" stroke="#fff" stroke-width="1.371" d="M181.81 252.017c1.11 0 2.032-.887 2.032-2.008 0-1.12-.922-2.008-2.032-2.008-1.111 0-2.032.888-2.032 2.008 0 1.121.921 2.008 2.032 2.008zM211.62 259.492c1.11 0 2.032-.888 2.032-2.008 0-1.121-.922-2.008-2.032-2.008-1.111 0-2.032.887-2.032 2.008 0 1.12.921 2.008 2.032 2.008zM241.429 243.415c1.111 0 2.032-.888 2.032-2.009 0-1.12-.921-2.008-2.032-2.008-1.11 0-2.032.888-2.032 2.008 0 1.121.922 2.009 2.032 2.009zM271.239 238.62c1.111 0 2.032-.888 2.032-2.009 0-1.12-.921-2.008-2.032-2.008s-2.032.888-2.032 2.008c0 1.121.921 2.009 2.032 2.009zM301.048 255.755c1.111 0 2.032-.888 2.032-2.009 0-1.12-.921-2.008-2.032-2.008s-2.032.888-2.032 2.008c0 1.121.921 2.009 2.032 2.009zM330.858 234.036c1.111 0 2.032-.888 2.032-2.008 0-1.121-.921-2.008-2.032-2.008-1.11 0-2.031.887-2.031 2.008 0 1.12.921 2.008 2.031 2.008zM360.541 223.167c1.11 0 2.032-.888 2.032-2.009 0-1.12-.922-2.008-2.032-2.008-1.111 0-2.032.888-2.032 2.008 0 1.121.921 2.009 2.032 2.009zM390.478 237.632c1.11 0 2.032-.887 2.032-2.008 0-1.12-.922-2.008-2.032-2.008-1.111 0-2.032.888-2.032 2.008 0 1.121.921 2.008 2.032 2.008zM420.287 220.427c1.11 0 2.032-.888 2.032-2.009 0-1.12-.922-2.008-2.032-2.008-1.111 0-2.032.888-2.032 2.008 0 1.121.921 2.009 2.032 2.009zM450.097 282.269c1.111 0 2.032-.888 2.032-2.009 0-1.12-.921-2.008-2.032-2.008s-2.032.888-2.032 2.008c0 1.121.921 2.009 2.032 2.009z"/>
    <defs>
        <clipPath id="prefix__clip0">
            <path fill="#fff" d="M72.932 160.518H111.64500000000001V198.287H72.932z"/>
        </clipPath>
        <clipPath id="prefix__clip1">
            <path fill="#fff" d="M168.928 109.53H205.656V141.63400000000001H168.928z"/>
        </clipPath>
        <clipPath id="prefix__clip2">
            <path fill="#fff" d="M8.834 257.773H61.711V289.877H8.834z"/>
        </clipPath>
        <clipPath id="prefix__clip3">
            <path fill="#fff" d="M104.001 39.185H152.945V71.289H104.001z"/>
        </clipPath>
        <clipPath id="prefix__clip4">
            <path fill="#fff" d="M188.963 55.709H217.435V87.813H188.963z"/>
        </clipPath>
        <clipPath id="prefix__clip5">
            <path fill="#fff" d="M14.018 67.984H64.062V100.088H14.018z"/>
        </clipPath>
        <clipPath id="prefix__clip6">
            <path fill="#fff" d="M225.488 141.634H266.09V173.738H225.488z"/>
        </clipPath>
        <clipPath id="prefix__clip7">
            <path fill="#fff" d="M226.579 81.675H264.009V113.779H226.579z"/>
        </clipPath>
        <clipPath id="prefix__clip8">
            <path fill="#fff" d="M91.653 290.821H151.139V322.925H91.653z"/>
        </clipPath>
        <filter id="prefix__filter0_d" width="371.139" height="214.039" x="111.861" y="134.773" color-interpolation-filters="sRGB" filterUnits="userSpaceOnUse">
            <feFlood flood-opacity="0" result="BackgroundImageFix"/>
            <feColorMatrix in="SourceAlpha" values="0 0 0 0 0 0 0 0 0 0 0 0 0 0 0 0 0 0 127 0"/>
            <feOffset dy="6.857"/>
            <feGaussianBlur stdDeviation="6.857"/>
            <feColorMatrix values="0 0 0 0 0 0 0 0 0 0 0 0 0 0 0 0 0 0 0.05 0"/>
            <feBlend in2="BackgroundImageFix" result="effect1_dropShadow"/>
            <feBlend in="SourceGraphic" in2="effect1_dropShadow" result="shape"/>
        </filter>
    </defs>
</svg>
