<svg xmlns="http://www.w3.org/2000/svg" width="468" height="328" fill="none" viewBox="0 0 468 328">
    <circle cx="38.09" cy="38.09" r="38.09" fill="#24C185"/>
    <rect width="326.978" height="270.484" x="83.455" y="56.92" fill="#F8F9FA" stroke="#F1F3F5" stroke-width=".854" rx="8.117"/>
    <path fill="#FFB272" d="M433.334 185.177c5.262-.211 10.046 3.039 11.788 8.009l22.202 63.321c1.698 4.842.125 10.228-3.913 13.394l-53.548 41.996c-4.103 3.218-9.816 3.413-14.129.483l-55.017-37.378c-4.313-2.93-6.236-8.313-4.756-13.313l19.315-65.253c1.457-4.92 5.884-8.367 11.011-8.572l67.047-2.687z"/>
    <g filter="url(#prefix__filter0_d)">
        <rect width="418.564" height="231.965" x="20.543" y="24.823" fill="#fff" rx="8.544"/>
    </g>
    <path fill="#C0C7CE" d="M43.665 47.096h-.998v1.44h-.763v-1.44h-3.07v-.584l3.202-4.614h.631v4.557h.998v.64zm-1.76-.64v-3.268l-2.27 3.267h2.27zm6.069-1.328c.389.119.69.323.904.612.22.288.33.634.33 1.035 0 .572-.208 1.02-.622 1.347-.415.32-1.002.48-1.761.48-.76 0-1.346-.16-1.76-.48-.415-.327-.622-.775-.622-1.346 0-.409.11-.757.33-1.046.22-.288.523-.49.913-.602-.333-.126-.597-.324-.791-.593-.195-.27-.292-.587-.292-.951 0-.54.194-.967.584-1.28.395-.321.941-.481 1.638-.481s1.24.16 1.629.48c.395.314.593.74.593 1.28 0 .365-.097.685-.292.961-.194.27-.455.465-.781.584zm-2.608-1.488c0 .39.122.687.367.895.25.207.615.31 1.092.31.477 0 .838-.103 1.083-.31.25-.208.376-.506.376-.895 0-.37-.125-.659-.376-.866-.245-.207-.606-.31-1.083-.31s-.841.103-1.092.31c-.245.207-.367.496-.367.866zm1.459 4.322c1.08 0 1.62-.411 1.62-1.234 0-.822-.54-1.233-1.62-1.233s-1.62.411-1.62 1.233c0 .823.54 1.234 1.62 1.234zM43.665 77.91h-.998v1.44h-.763v-1.44h-3.07v-.584l3.202-4.613h.631v4.557h.998v.64zm-1.76-.64v-3.267l-2.27 3.267h2.27zm7.17 1.431v.65h-4.274v-.584l2.325-2.561c.314-.352.54-.665.678-.942.145-.282.217-.564.217-.847 0-.364-.107-.643-.32-.838-.214-.195-.515-.292-.904-.292-.64 0-1.268.254-1.883.763l-.292-.593c.263-.251.593-.45.988-.593.402-.151.804-.227 1.206-.227.608 0 1.089.157 1.44.471.358.314.537.738.537 1.271 0 .383-.088.75-.264 1.102-.17.352-.452.744-.847 1.177L45.799 78.7h3.276zM42.102 106.757c.389.113.687.307.894.583.207.27.311.612.311 1.027 0 .577-.198 1.032-.593 1.365-.39.333-.92.499-1.591.499-.427 0-.838-.072-1.234-.217-.395-.144-.728-.345-.998-.602l.292-.593c.603.508 1.243.762 1.92.762.472 0 .83-.103 1.074-.31.245-.214.367-.524.367-.933 0-.809-.508-1.214-1.525-1.214h-.763v-.65h.612c.49 0 .867-.106 1.13-.32.264-.22.396-.533.396-.941 0-.358-.107-.631-.32-.82-.214-.194-.518-.291-.914-.291-.64 0-1.268.254-1.883.762l-.292-.593c.27-.257.6-.458.989-.603.39-.144.794-.216 1.215-.216.602 0 1.08.154 1.43.461.358.301.537.709.537 1.224 0 .383-.094.719-.282 1.008-.182.282-.44.486-.772.612zm5.015-.763c.401 0 .76.088 1.073.264.314.175.559.423.734.743.176.321.264.688.264 1.102 0 .408-.091.775-.273 1.102-.182.326-.436.58-.763.762-.326.182-.693.273-1.101.273-.804 0-1.425-.279-1.864-.838-.434-.558-.65-1.355-.65-2.391 0-.747.1-1.387.301-1.921.207-.533.502-.938.885-1.214.383-.283.841-.424 1.375-.424.383 0 .756.072 1.12.216.364.138.684.339.96.603l-.291.593c-.314-.263-.615-.455-.904-.574-.283-.126-.571-.188-.866-.188-.572 0-1.017.254-1.337.762-.314.502-.471 1.215-.471 2.137v.142c.144-.352.377-.631.697-.838.32-.207.69-.311 1.11-.311zm-.104 3.597c.427 0 .769-.135 1.026-.405.258-.27.386-.628.386-1.073 0-.44-.131-.795-.395-1.064-.257-.27-.6-.405-1.026-.405-.433 0-.788.138-1.064.414-.27.27-.405.621-.405 1.055 0 .439.135.797.405 1.073.276.27.634.405 1.073.405zM42.093 137.571c.389.113.687.308.894.584.207.27.31.612.31 1.026 0 .578-.197 1.033-.592 1.366-.39.332-.92.499-1.592.499-.426 0-.838-.073-1.233-.217-.396-.144-.728-.345-.998-.603l.292-.593c.602.509 1.243.763 1.92.763.471 0 .83-.104 1.074-.311.245-.213.367-.524.367-.932 0-.81-.508-1.215-1.525-1.215h-.763v-.649h.612c.49 0 .866-.107 1.13-.32.264-.22.396-.534.396-.942 0-.358-.107-.631-.32-.819-.214-.195-.518-.292-.914-.292-.64 0-1.268.254-1.883.763l-.292-.593c.27-.258.6-.459.989-.603.389-.144.794-.217 1.214-.217.603 0 1.08.154 1.431.462.358.301.537.709.537 1.224 0 .383-.094.719-.282 1.007-.182.283-.44.487-.772.612zm4.732 3.484c-.76 0-1.337-.289-1.733-.866-.395-.578-.593-1.419-.593-2.524 0-1.111.198-1.955.593-2.532.396-.578.974-.867 1.733-.867.76 0 1.337.289 1.732.867.396.571.594 1.412.594 2.523 0 1.111-.198 1.955-.594 2.533-.395.577-.973.866-1.732.866zm0-.65c.527 0 .916-.222 1.167-.668.252-.446.377-1.139.377-2.081 0-.948-.125-1.638-.377-2.071-.244-.44-.633-.659-1.167-.659-.527 0-.917.219-1.168.659-.25.439-.376 1.129-.376 2.071 0 .942.125 1.635.377 2.081.25.446.64.668 1.167.668zM43.43 171.145v.649h-4.275v-.583l2.326-2.561c.313-.352.54-.666.678-.942.144-.283.216-.565.216-.847 0-.365-.107-.644-.32-.838-.213-.195-.515-.292-.904-.292-.64 0-1.268.254-1.883.762l-.292-.593c.264-.251.593-.449.989-.593.401-.151.803-.226 1.205-.226.609 0 1.089.157 1.44.471.358.314.537.737.537 1.271 0 .383-.088.75-.264 1.102-.169.351-.451.743-.847 1.176l-1.883 2.044h3.277zm5.88-.791h-.997v1.44h-.763v-1.44h-3.07v-.584l3.202-4.614h.63v4.557h.999v.641zm-1.76-.641v-3.267l-2.27 3.267h2.27zM43.27 201.959v.649h-3.691v-.649h1.46v-5.028l-1.168.734-.358-.593 1.742-1.102h.555v5.989h1.46zm4.704-2.759c.389.119.69.323.904.612.22.289.33.634.33 1.036 0 .571-.208 1.02-.622 1.346-.415.32-1.002.48-1.761.48-.76 0-1.346-.16-1.76-.48-.415-.326-.622-.775-.622-1.346 0-.408.11-.757.33-1.045.22-.289.523-.49.913-.603-.333-.126-.597-.323-.791-.593-.195-.27-.292-.587-.292-.951 0-.54.194-.967.584-1.281.395-.32.941-.48 1.638-.48s1.24.16 1.629.48c.395.314.593.741.593 1.281 0 .364-.097.684-.292.96-.194.27-.455.465-.781.584zm-2.608-1.488c0 .389.122.688.367.895.25.207.615.311 1.092.311.477 0 .838-.104 1.083-.311.25-.207.376-.506.376-.895 0-.37-.125-.659-.376-.866-.245-.207-.606-.311-1.083-.311s-.841.104-1.092.311c-.245.207-.367.496-.367.866zm1.459 4.322c1.08 0 1.62-.411 1.62-1.233 0-.823-.54-1.234-1.62-1.234s-1.62.411-1.62 1.234c0 .822.54 1.233 1.62 1.233z"/>
    <path stroke="#ECF0F4" stroke-width=".854" d="M419.42 201.578L58.206 201.578M419.42 45.794L58.206 45.794M419.42 76.608L58.206 76.608M419.42 108.279L58.206 108.279M419.42 137.381L58.206 137.381M419.42 168.196L58.206 168.196"/>
    <path stroke="#ECF0F4" stroke-dasharray="3.42 3.42" stroke-linecap="round" stroke-width=".854" d="M58.633 45.794L58.633 201.578"/>
    <path stroke="#ECF0F4" stroke-linecap="round" stroke-width=".854" d="M0.427 -0.427L4.699 -0.427" transform="matrix(0 -1.00183 -1.00183 0 229.397 206.286)"/>
    <path stroke="#ECF0F4" stroke-linecap="round" stroke-width=".854" d="M0.427 -0.427L4.699 -0.427" transform="matrix(0 -1.00183 -1.00183 0 58.205 206.286)"/>
    <path stroke="#ECF0F4" stroke-linecap="round" stroke-width=".854" d="M0.427 -0.427L4.699 -0.427" transform="matrix(0 -1.00183 -1.00183 0 143.802 206.286)"/>
    <path stroke="#ECF0F4" stroke-linecap="round" stroke-width=".854" d="M0.427 -0.427L4.699 -0.427" transform="matrix(0 -1.00183 -1.00183 0 314.993 206.286)"/>
    <path stroke="#ECF0F4" stroke-linecap="round" stroke-width=".854" d="M0.427 -0.427L4.699 -0.427" transform="matrix(0 -1.00183 -1.00183 0 400.589 206.286)"/>
    <path fill="#C0C7CE" d="M51.99 217.366v.65h-4.276v-.584l2.326-2.561c.314-.351.54-.665.678-.941.144-.283.217-.565.217-.848 0-.364-.107-.643-.32-.838-.214-.194-.515-.292-.904-.292-.64 0-1.268.255-1.883.763l-.292-.593c.263-.251.593-.449.988-.593.402-.151.804-.226 1.205-.226.61 0 1.09.157 1.441.47.358.314.537.738.537 1.272 0 .382-.088.75-.264 1.101-.17.352-.452.744-.847 1.177l-1.883 2.043h3.276zm3.395.725c-.76 0-1.337-.288-1.733-.866-.395-.577-.593-1.419-.593-2.523 0-1.111.198-1.956.593-2.533.395-.578.973-.866 1.733-.866.759 0 1.337.288 1.732.866.395.571.593 1.412.593 2.523 0 1.111-.198 1.956-.593 2.533-.395.578-.973.866-1.732.866zm0-.649c.527 0 .916-.223 1.167-.669.251-.446.377-1.139.377-2.081 0-.948-.126-1.638-.377-2.071-.245-.44-.634-.659-1.167-.659-.528 0-.917.219-1.168.659-.251.439-.377 1.13-.377 2.071 0 .942.126 1.635.377 2.081.251.446.64.669 1.168.669zm7.735-.076v.65h-3.69v-.65h1.459v-5.028l-1.168.735-.357-.593 1.741-1.102h.556v5.988h1.46zm3.838-3.512c.42 0 .785.088 1.092.264.314.176.556.424.725.744.17.314.255.678.255 1.092 0 .42-.094.791-.283 1.111-.182.32-.442.571-.781.753-.34.176-.735.264-1.187.264-.401 0-.8-.072-1.195-.217-.39-.15-.72-.351-.99-.602l.293-.593c.615.508 1.246.762 1.892.762.465 0 .829-.132 1.093-.395.263-.264.395-.622.395-1.074 0-.439-.132-.794-.395-1.064-.258-.27-.603-.404-1.036-.404-.634 0-1.14.257-1.516.772h-.537v-3.889h3.983v.64h-3.22v2.364c.176-.17.383-.299.621-.386.245-.095.509-.142.791-.142zM138.445 217.366v.65h-4.274v-.584l2.325-2.561c.314-.351.54-.665.678-.941.145-.283.217-.565.217-.848 0-.364-.107-.643-.32-.838-.214-.194-.515-.292-.904-.292-.64 0-1.268.255-1.883.763l-.292-.593c.263-.251.593-.449.988-.593.402-.151.804-.226 1.206-.226.609 0 1.089.157 1.44.47.358.314.537.738.537 1.272 0 .382-.088.75-.264 1.101-.169.352-.452.744-.847 1.177l-1.883 2.043h3.276zm3.396.725c-.76 0-1.337-.288-1.733-.866-.395-.577-.593-1.419-.593-2.523 0-1.111.198-1.956.593-2.533.396-.578.973-.866 1.733-.866.759 0 1.337.288 1.732.866.396.571.593 1.412.593 2.523 0 1.111-.197 1.956-.593 2.533-.395.578-.973.866-1.732.866zm0-.649c.527 0 .916-.223 1.167-.669.251-.446.377-1.139.377-2.081 0-.948-.126-1.638-.377-2.071-.245-.44-.634-.659-1.167-.659-.528 0-.917.219-1.168.659-.251.439-.376 1.13-.376 2.071 0 .942.125 1.635.376 2.081.251.446.64.669 1.168.669zm7.736-.076v.65h-3.691v-.65h1.459v-5.028l-1.167.735-.358-.593 1.742-1.102h.555v5.988h1.46zm3.837-3.521c.402 0 .76.088 1.074.263.314.176.558.424.734.744.176.32.264.688.264 1.102 0 .408-.091.775-.273 1.102-.182.326-.436.58-.763.762-.326.182-.693.273-1.101.273-.804 0-1.425-.279-1.865-.838-.433-.558-.649-1.356-.649-2.391 0-.747.1-1.387.301-1.921.207-.534.502-.938.885-1.215.383-.282.841-.423 1.375-.423.383 0 .756.072 1.12.216.364.138.684.339.96.603l-.291.593c-.314-.264-.616-.455-.904-.574-.283-.126-.572-.189-.867-.189-.571 0-1.016.255-1.337.763-.313.502-.47 1.215-.47 2.137v.142c.144-.352.376-.631.696-.838.321-.208.691-.311 1.111-.311zm-.103 3.597c.427 0 .769-.135 1.026-.405.258-.27.386-.628.386-1.074 0-.439-.132-.794-.395-1.064-.258-.27-.6-.404-1.027-.404-.433 0-.787.138-1.063.414-.27.27-.405.621-.405 1.054 0 .44.135.798.405 1.074.276.27.633.405 1.073.405zM223.181 217.366v.65h-4.275v-.584l2.326-2.561c.313-.351.539-.665.677-.941.145-.283.217-.565.217-.848 0-.364-.107-.643-.32-.838-.214-.194-.515-.292-.904-.292-.64 0-1.268.255-1.883.763l-.292-.593c.264-.251.593-.449.989-.593.401-.151.803-.226 1.205-.226.609 0 1.089.157 1.44.47.358.314.537.738.537 1.272 0 .382-.088.75-.264 1.101-.169.352-.452.744-.847 1.177l-1.883 2.043h3.277zm3.395.725c-.76 0-1.337-.288-1.733-.866-.395-.577-.593-1.419-.593-2.523 0-1.111.198-1.956.593-2.533.396-.578.973-.866 1.733-.866.759 0 1.337.288 1.732.866.396.571.593 1.412.593 2.523 0 1.111-.197 1.956-.593 2.533-.395.578-.973.866-1.732.866zm0-.649c.527 0 .916-.223 1.167-.669.251-.446.377-1.139.377-2.081 0-.948-.126-1.638-.377-2.071-.244-.44-.634-.659-1.167-.659-.527 0-.917.219-1.168.659-.251.439-.376 1.13-.376 2.071 0 .942.125 1.635.376 2.081.251.446.641.669 1.168.669zm7.736-.076v.65h-3.691v-.65h1.459v-5.028l-1.167.735-.358-.593 1.742-1.102h.555v5.988h1.46zm5.749-5.988v.574l-3.107 6.064h-.838l3.098-5.988h-3.541v-.65h4.388zM309.633 217.366v.65h-4.275v-.584l2.326-2.561c.314-.351.54-.665.678-.941.144-.283.216-.565.216-.848 0-.364-.106-.643-.32-.838-.213-.194-.515-.292-.904-.292-.64 0-1.268.255-1.883.763l-.292-.593c.264-.251.594-.449.989-.593.402-.151.803-.226 1.205-.226.609 0 1.089.157 1.441.47.358.314.536.738.536 1.272 0 .382-.087.75-.263 1.101-.17.352-.452.744-.848 1.177l-1.883 2.043h3.277zm3.395.725c-.759 0-1.337-.288-1.732-.866-.396-.577-.593-1.419-.593-2.523 0-1.111.197-1.956.593-2.533.395-.578.973-.866 1.732-.866.76 0 1.337.288 1.733.866.395.571.593 1.412.593 2.523 0 1.111-.198 1.956-.593 2.533-.396.578-.973.866-1.733.866zm0-.649c.527 0 .917-.223 1.168-.669.251-.446.376-1.139.376-2.081 0-.948-.125-1.638-.376-2.071-.245-.44-.634-.659-1.168-.659-.527 0-.916.219-1.167.659-.251.439-.377 1.13-.377 2.071 0 .942.126 1.635.377 2.081.251.446.64.669 1.167.669zm7.736-.076v.65h-3.691v-.65h1.46v-5.028l-1.168.735-.358-.593 1.742-1.102h.556v5.988h1.459zm4.704-2.758c.389.119.691.323.904.612.22.288.33.634.33 1.035 0 .571-.207 1.02-.622 1.347-.414.32-1.001.48-1.76.48-.76 0-1.347-.16-1.761-.48-.414-.327-.622-.776-.622-1.347 0-.408.11-.756.33-1.045.22-.289.524-.49.913-.602-.332-.126-.596-.324-.791-.594-.194-.27-.292-.587-.292-.951 0-.539.195-.966.584-1.28.396-.32.942-.48 1.639-.48.696 0 1.239.16 1.628.48.396.314.594.741.594 1.28 0 .364-.098.685-.292.961-.195.27-.455.464-.782.584zm-2.608-1.488c0 .389.123.687.367.894.251.207.615.311 1.093.311.477 0 .837-.104 1.082-.311.251-.207.377-.505.377-.894 0-.37-.126-.659-.377-.866-.245-.208-.605-.311-1.082-.311-.478 0-.842.103-1.093.311-.244.207-.367.496-.367.866zm1.46 4.322c1.079 0 1.619-.412 1.619-1.234 0-.822-.54-1.233-1.619-1.233-1.08 0-1.62.411-1.62 1.233 0 .822.54 1.234 1.62 1.234zM393.516 217.366v.65h-4.274v-.584l2.325-2.561c.314-.351.54-.665.678-.941.145-.283.217-.565.217-.848 0-.364-.107-.643-.32-.838-.214-.194-.515-.292-.904-.292-.64 0-1.268.255-1.883.763l-.292-.593c.263-.251.593-.449.988-.593.402-.151.804-.226 1.206-.226.608 0 1.089.157 1.44.47.358.314.537.738.537 1.272 0 .382-.088.75-.264 1.101-.169.352-.452.744-.847 1.177l-1.883 2.043h3.276zm3.396.725c-.76 0-1.337-.288-1.733-.866-.395-.577-.593-1.419-.593-2.523 0-1.111.198-1.956.593-2.533.396-.578.973-.866 1.733-.866.759 0 1.337.288 1.732.866.396.571.593 1.412.593 2.523 0 1.111-.197 1.956-.593 2.533-.395.578-.973.866-1.732.866zm0-.649c.527 0 .916-.223 1.167-.669.251-.446.377-1.139.377-2.081 0-.948-.126-1.638-.377-2.071-.245-.44-.634-.659-1.167-.659-.528 0-.917.219-1.168.659-.251.439-.376 1.13-.376 2.071 0 .942.125 1.635.376 2.081.251.446.64.669 1.168.669zm7.736-.076v.65h-3.691v-.65h1.459v-5.028l-1.167.735-.358-.593 1.742-1.102h.555v5.988h1.46zm3.348-6.063c.803 0 1.422.279 1.855.838.439.558.659 1.355.659 2.391 0 1.124-.226 1.999-.678 2.627-.452.622-1.083.932-1.893.932-.376 0-.747-.069-1.111-.207-.364-.144-.684-.348-.96-.612l.292-.593c.314.264.612.458.894.584.289.119.581.179.876.179.571 0 1.014-.251 1.328-.754.313-.508.47-1.224.47-2.146v-.123c-.144.352-.379.628-.706.829-.32.201-.684.301-1.092.301-.402 0-.76-.088-1.073-.264-.314-.175-.559-.423-.735-.743-.176-.321-.264-.688-.264-1.102 0-.408.092-.775.274-1.102.182-.326.436-.58.762-.762.327-.182.694-.273 1.102-.273zm.047 3.596c.433 0 .785-.135 1.054-.404.277-.277.415-.631.415-1.064 0-.44-.138-.794-.415-1.064-.269-.277-.624-.415-1.064-.415-.426 0-.768.135-1.026.405-.257.27-.386.628-.386 1.074 0 .445.129.803.386 1.073.264.264.609.395 1.036.395z"/>
    <path fill="url(#prefix__paint0_linear)" fill-rule="evenodd" d="M58.205 140.377s3.972-2.036 8.879-2.036c4.906 0 29.44 2.036 37.85 2.036 8.412 0 9.346-2.036 17.991-2.036s10.28-1.781 15.888-1.781h25.467c5.14 0 15.421-1.272 15.421-1.272" clip-rule="evenodd"/>
    <path fill="url(#prefix__paint1_linear)" d="M58.205 140.377s3.972-2.036 8.879-2.036c4.906 0 29.44 2.036 37.85 2.036 8.412 0 9.346-2.036 17.991-2.036s10.28-1.781 15.888-1.781h25.467c5.14 0 15.421-1.272 15.421-1.272l7.243-2.545c1.557.848 5.467 2.545 8.644 2.545 3.972 0 40.421-2.545 54.206-2.545 13.785 0 31.542 1.018 34.813 1.018 3.271 0 1.635 1.527 7.009 1.527 5.374 0 8.645-4.835 15.187-5.344 6.542-.509 29.907 0 33.879 0 3.972 0 4.205 2.799 8.177 2.799 3.972 0 5.374.255 8.879-1.272 3.504-1.527 2.336-3.308 6.308-3.053 3.972.254 19.159 3.053 24.299 3.053 5.14 0 3.738 5.852 7.944 4.834 3.365-.814 15.539-5.597 21.847-7.887v73.588H58.206v-61.629z"/>
    <path stroke="#3BA2E7" stroke-linecap="round" stroke-width="1.709" d="M58.205 140.377s3.972-2.036 8.879-2.036c4.906 0 29.44 2.036 37.85 2.036 8.412 0 9.346-2.036 17.991-2.036s10.28-1.781 15.888-1.781h25.467c5.14 0 15.421-1.272 15.421-1.272l7.243-2.545c1.557.848 5.467 2.545 8.644 2.545 3.972 0 40.421-2.545 54.206-2.545 13.785 0 31.542 1.018 34.813 1.018 3.271 0 1.636 1.527 7.009 1.527 5.374 0 8.645-4.835 15.187-5.344 6.542-.509 29.907 0 33.879 0 3.972 0 4.205 2.799 8.177 2.799 3.972 0 5.374.255 8.879-1.272 3.504-1.527 2.336-3.308 6.308-3.053 3.972.254 19.159 3.053 24.299 3.053 5.14 0 3.738 5.852 7.944 4.834 3.365-.814 14.255-5.597 20.563-7.887"/>
    <path fill="url(#prefix__paint2_linear)" d="M113.77 192.002c3.953 0 3.023-50.627 8.138-50.627 5.114 0 3.487 49.111 7.904 49.111s3.72-104.284 7.44-104.284c10.401 0 15.109 101.252 24.952 101.252 3.852 0 5.844-104.932 7.704-104.426 9.843 2.14 13.287-1.284 16.263-1.284 3.72 0 3.623 53.871 8.273 53.871 4.65 0 16.507-1.515 21.622-1.515h18.831c3.488 0 4.185-3.032 6.743-3.032 2.557 0 4.882 52.142 9.067 52.142h30.921c3.487 0 6.509 2.728 8.369 2.728 1.86 0 5.58-4.547 9.765-4.547 4.185 0 2.557-2.122 11.159-2.122h19.065c4.417 0 3.254-49.717 10.462-49.717 7.207 0 5.114 2.122 6.974 3.335 1.86 1.213 3.953 48.504 7.207 48.504 3.255 0 3.953-4.244 7.905-4.244 3.952 0 19.297-.606 23.946 0 4.65.606 1.628 8.791 7.208 8.791 4.463 0 13.019-3.031 16.739-4.547 2.17-32.336 6.835-98.767 8.137-105.8v125.826H58.205v-9.415s4.185-1.819 7.44-1.819c3.255 0 44.173 1.819 48.125 1.819z"/>
    <path stroke="#24C185" stroke-linecap="round" stroke-width="1.709" d="M58.633 191.734s4.185-1.818 7.44-1.818c3.255 0 44.173 1.818 48.125 1.818 3.953 0 3.023-50.626 8.137-50.626 5.115 0 3.488 49.111 7.905 49.111s3.72-104.285 7.44-104.285c8.602 0 17.669 101.253 25.108 101.253 1.55-34.66 5.208-103.98 7.44-103.98s6.51 1.01 8.37 1.515c1.395-.91 4.929-2.728 7.904-2.728 3.72 0 3.72 53.354 8.37 53.354 4.65 0 16.507-1.516 21.621-1.516h18.832c3.487 0 4.185-3.031 6.742-3.031 2.558 0 4.883 52.142 9.067 52.142h30.921c3.488 0 6.51 2.728 8.37 2.728 1.86 0 5.58-4.547 9.765-4.547 4.184 0 2.557-2.122 11.159-2.122h19.064c4.418 0 3.255-49.717 10.462-49.717s5.115 2.122 6.975 3.335c1.86 1.212 3.952 48.504 7.207 48.504s3.952-4.244 7.905-4.244c3.952 0 19.296-.606 23.946 0 4.65.606 1.628 8.791 7.207 8.791 4.464 0 13.02-3.031 16.74-4.547 2.169-32.336 6.835-98.767 8.137-105.8"/>
    <path fill="#868E96" d="M185.624 239.084h-1.77v-2.232h1.77v2.232zm0-2.844h-1.77v-2.062h-.735v5.527h3.23v-5.527h-.725v2.062zm3.634-2.862v3.343h-1.139v-3.155h-.725v7.843h.725v-4.058h1.139v4.473h.735v-8.446h-.735zm7.108 3.022c-1.129.226-2.109.292-3.747.292v-2.203h2.966v-.621h-3.729v3.446h.65c1.742 0 2.768-.057 3.955-.302l-.095-.612zm-2.918 3.738h4.585v-2.08h-5.367v.612h4.604v.885h-4.576v2.156h5.65v-.622h-4.896v-.951zm4.585-4.98v-1.78h-.772v4.246h.772v-1.836h1.252v-.63h-1.252zm4.848-1.159c-1.309 0-2.26.801-2.26 1.987 0 1.177.951 1.987 2.26 1.987 1.318 0 2.26-.81 2.26-1.987 0-1.186-.942-1.987-2.26-1.987zm0 .66c.876 0 1.507.536 1.507 1.327 0 .782-.631 1.328-1.507 1.328-.875 0-1.506-.546-1.506-1.328 0-.791.631-1.327 1.506-1.327zm3.371-1.281v8.465h.772v-8.465h-.772zm-5.96 6.61c1.525 0 3.568-.01 5.47-.367l-.066-.575c-1.845.283-3.963.292-5.498.292l.094.65zm17.868-6.601h-.772v6.064h.772v-6.064zm-3.295 4.03h-2.439v-2.683h2.439v2.683zm.753-3.305h-3.945v3.927h3.945v-3.927zm-2.119 6.808v-2.043h-.772v2.664h5.687v-.621h-4.915zm7.108-4.105c1.385-.17 2.637-.791 3.108-1.723.47.932 1.732 1.553 3.116 1.723l.273-.603c-1.487-.169-2.843-.913-2.89-1.864h2.627v-.631h-6.252v.631h2.627c-.048.951-1.422 1.695-2.891 1.864l.282.603zm.132 2.89h5.075v2.128h.772v-2.749h-5.847v.621zm3.352-2.09v-1.271h-.772v1.271h-3.427v.631h7.664v-.631h-3.465zM265.068 238.114c.348.085.753.132 1.168.132.423 0 .828-.047 1.186-.132v1.987h-2.354v-1.987zm1.168-3.597c1.355 0 2.335.622 2.335 1.563 0 .942-.98 1.563-2.335 1.563-1.356 0-2.326-.621-2.326-1.563 0-.941.97-1.563 2.326-1.563zm1.958 5.584v-2.288c.697-.367 1.111-.97 1.111-1.733 0-1.318-1.271-2.165-3.069-2.165-1.789 0-3.07.847-3.07 2.165 0 .763.424 1.375 1.13 1.742v2.279h-1.883v.64h7.674v-.64h-1.893zm3.389-5.81v.622h3.173c-.16 2.005-1.29 3.625-3.559 4.708l.414.63c2.806-1.374 3.926-3.521 3.926-5.96h-3.954zm5.659-.913v8.446h.772v-8.446h-.772zm5.149 4.736c.349.085.753.132 1.168.132.423 0 .828-.047 1.186-.132v1.987h-2.354v-1.987zm1.168-3.597c1.356 0 2.335.622 2.335 1.563 0 .942-.979 1.563-2.335 1.563-1.356 0-2.326-.621-2.326-1.563 0-.941.97-1.563 2.326-1.563zm1.958 5.584v-2.288c.697-.367 1.111-.97 1.111-1.733 0-1.318-1.271-2.165-3.069-2.165-1.789 0-3.07.847-3.07 2.165 0 .763.424 1.375 1.13 1.742v2.279h-1.883v.64h7.674v-.64h-1.893z"/>
    <circle cx="174.615" cy="237.956" r="3.424" fill="#24C185"/>
    <circle cx="254.22" cy="237.956" r="3.424" fill="#3BA2E7"/>
    <path fill="#E9ECEF" d="M53.069 273.051H200.29399999999998V278.187H53.069zM53.069 284.178H97.57900000000001V289.314H53.069z"/>
    <defs>
        <linearGradient id="prefix__paint0_linear" x1="238.813" x2="238.813" y1="128.393" y2="202.006" gradientUnits="userSpaceOnUse">
            <stop stop-color="#3BA2E7" stop-opacity=".44"/>
            <stop offset="1" stop-color="#3BA2E7" stop-opacity=".06"/>
        </linearGradient>
        <linearGradient id="prefix__paint1_linear" x1="238.813" x2="238.813" y1="128.393" y2="202.006" gradientUnits="userSpaceOnUse">
            <stop stop-color="#3BA2E7" stop-opacity=".44"/>
            <stop offset="1" stop-color="#3BA2E7" stop-opacity=".06"/>
        </linearGradient>
        <linearGradient id="prefix__paint2_linear" x1="219.126" x2="219.126" y1="122.402" y2="206.286" gradientUnits="userSpaceOnUse">
            <stop stop-color="#36CBA1" stop-opacity=".4"/>
            <stop offset="1" stop-color="#36CBA1" stop-opacity="0"/>
        </linearGradient>
        <filter id="prefix__filter0_d" width="452.802" height="266.203" x="3.424" y="16.263" color-interpolation-filters="sRGB" filterUnits="userSpaceOnUse">
            <feFlood flood-opacity="0" result="BackgroundImageFix"/>
            <feColorMatrix in="SourceAlpha" values="0 0 0 0 0 0 0 0 0 0 0 0 0 0 0 0 0 0 127 0"/>
            <feOffset dy="8.544"/>
            <feGaussianBlur stdDeviation="8.544"/>
            <feColorMatrix values="0 0 0 0 0 0 0 0 0 0 0 0 0 0 0 0 0 0 0.05 0"/>
            <feBlend in2="BackgroundImageFix" result="effect1_dropShadow"/>
            <feBlend in="SourceGraphic" in2="effect1_dropShadow" result="shape"/>
        </filter>
    </defs>
</svg>
